<svg id="gradient_green" data-name="gradient green" xmlns="http://www.w3.org/2000/svg" xmlns:xlink="http://www.w3.org/1999/xlink" viewBox="0 0 190 190"><defs><style>.cls-1{fill:url(#linear-gradient);}.cls-2{fill:url(#linear-gradient-2);}.cls-3{fill:url(#linear-gradient-3);}</style><linearGradient id="linear-gradient" x1="68.4" y1="1.09" x2="120.97" y2="197.3" gradientUnits="userSpaceOnUse"><stop offset="0" stop-color="#00c895"/><stop offset="1" stop-color="#00ad93"/></linearGradient><linearGradient id="linear-gradient-2" x1="37.16" y1="42.35" x2="53.75" y2="104.27" xlink:href="#linear-gradient"/><linearGradient id="linear-gradient-3" x1="80.12" y1="105.22" x2="86.29" y2="128.25" xlink:href="#linear-gradient"/></defs><title>gradient_green_Pocket_Knife_LARGE</title><path class="cls-1" d="M171.43,142V97.7a10.69,10.69,0,0,0-2.4-6.12l-4.37-4.36a3.68,3.68,0,0,0-5,0l-4.59,4.36a10.13,10.13,0,0,0-2.4,6.12v24.36L97.92,67.34h53.42a10.69,10.69,0,0,0,6.11-2.4l12-12a4,4,0,0,0,0-5.25l-12-12a10.13,10.13,0,0,0-6.11-2.4l-86,1.65a30.51,30.51,0,0,0-2.8-2.18L79.26,16a8.65,8.65,0,0,0,2.62-5.89V3.78A3.45,3.45,0,0,0,78.39.29H72.27a10.69,10.69,0,0,0-6.11,2.4L41.3,27.55a30.4,30.4,0,0,0-18.22,9,31,31,0,0,0-9.19,22.23,30.45,30.45,0,0,0,9.19,21.76l46.3,46.31L27.06,169.12a5.42,5.42,0,0,0,0,7.42,5.08,5.08,0,0,0,3.71,1.53,6.17,6.17,0,0,0,3.72-1.53l40.18-40.18v31.88a3.5,3.5,0,1,0,7,0V139.08l41.45,41.45a31.07,31.07,0,0,0,22.08,9.18h.16a30.52,30.52,0,0,0,21.78-9.2A31.44,31.44,0,0,0,171.43,142ZM128.62,39.6H145a3.5,3.5,0,1,1,0,7H128.62a3.5,3.5,0,0,1,0-7Zm34.44,136.92A24.83,24.83,0,0,1,145.32,184h-.13a25.37,25.37,0,0,1-18-7.51L27.09,76.44a24.81,24.81,0,0,1-7.5-17.74,25.39,25.39,0,0,1,7.54-18.19A24.8,24.8,0,0,1,44.87,33H45a25.37,25.37,0,0,1,18,7.51l100,100A25.64,25.64,0,0,1,163.06,176.52Z"/><path class="cls-2" d="M38.64,64.72a9,9,0,0,1,0-12.67,5.25,5.25,0,0,0-7.43-7.42,19.49,19.49,0,0,0,0,27.51l28,28a5.26,5.26,0,0,0,7.42,0,5.4,5.4,0,0,0,0-7.42Z"/><path class="cls-3" d="M81.45,107.53A5.25,5.25,0,0,0,74,115l10.92,10.92a5.08,5.08,0,0,0,3.71,1.53,4.79,4.79,0,0,0,3.72-1.53,5.42,5.42,0,0,0,0-7.42Z"/></svg>