<?xml version="1.0" encoding="UTF-8"?> <svg xmlns="http://www.w3.org/2000/svg" xmlns:xlink="http://www.w3.org/1999/xlink" id="gradient_green" data-name="gradient green" viewBox="0 0 190 190"><defs><style>.cls-1{fill:url(#linear-gradient);}</style><linearGradient id="linear-gradient" x1="74.69" y1="30.08" x2="113.41" y2="174.59" gradientUnits="userSpaceOnUse"><stop offset="0" stop-color="#00c895"></stop><stop offset="1" stop-color="#00ad93"></stop></linearGradient></defs><title>gradient_green_careers_NAV</title><path class="cls-1" d="M160.84,50.4H117.78V42.6a14,14,0,0,0-14-14h-22a14,14,0,0,0-14,14v7.8H29.16a15,15,0,0,0-15,15v80.93a15,15,0,0,0,15,15H160.84a15,15,0,0,0,15-15V65.41A15,15,0,0,0,160.84,50.4ZM141.9,59.27v93.22H48.28V59.27ZM76.79,42.6a5.09,5.09,0,0,1,5.08-5.09h22a5.09,5.09,0,0,1,5.08,5.09v7.8H76.79ZM23,146.34V65.41a6.14,6.14,0,0,1,6.14-6.14H39.42v93.22H29.16A6.15,6.15,0,0,1,23,146.34Zm144,0a6.15,6.15,0,0,1-6.14,6.15H150.76V59.27h10.08A6.14,6.14,0,0,1,167,65.41Z"></path></svg> 