<?xml version="1.0" encoding="UTF-8"?> <svg xmlns="http://www.w3.org/2000/svg" xmlns:xlink="http://www.w3.org/1999/xlink" id="gradient_green" data-name="gradient green" viewBox="0 0 190 190"><defs><style>.cls-1{fill:url(#linear-gradient);}.cls-2{fill:url(#linear-gradient-2);}.cls-3{fill:url(#linear-gradient-3);}</style><linearGradient id="linear-gradient" x1="73.95" y1="37.44" x2="109.78" y2="171.16" gradientUnits="userSpaceOnUse"><stop offset="0" stop-color="#00c895"></stop><stop offset="1" stop-color="#00ad93"></stop></linearGradient><linearGradient id="linear-gradient-2" x1="88.88" y1="82.65" x2="101.12" y2="128.33" xlink:href="#linear-gradient"></linearGradient><linearGradient id="linear-gradient-3" x1="92.52" y1="96.22" x2="97.48" y2="114.76" xlink:href="#linear-gradient"></linearGradient></defs><title>gradient_green_Cloud_NAV</title><path class="cls-1" d="M50,159.77l-4.73,0A45.25,45.25,0,0,1,1.12,122.48,44.58,44.58,0,0,1,10,87.12,45.12,45.12,0,0,1,22.79,76,35.1,35.1,0,0,1,31.63,61.1,36.06,36.06,0,0,1,64.4,51.36a55.19,55.19,0,0,1,27.22-18.6,54,54,0,0,1,30.84-.55,57.59,57.59,0,0,1,34.07,26,54.81,54.81,0,0,1,7.15,20.07,42.92,42.92,0,0,1,11.63,7.34,41.24,41.24,0,0,1,13.52,23.55,42.75,42.75,0,0,1-32.58,49.53,51.46,51.46,0,0,1-9.86,1.07l-5.87,0H50Zm7-100.25a26.89,26.89,0,0,0-19.13,7.85,26.52,26.52,0,0,0-7,12.64L30.44,82l-1.79.94A36.15,36.15,0,0,0,17,92.63a35.74,35.74,0,0,0-7.1,28.24,36.35,36.35,0,0,0,35.53,30c2.68,0,5.4,0,8,0h87.08l5.84,0a43,43,0,0,0,7.93-.85A33.21,33.21,0,0,0,175,135.77a33.07,33.07,0,0,0-5.53-43.5,33.91,33.91,0,0,0-11.31-6.63l-2.69-.94-.28-2.84a45.94,45.94,0,0,0-6.27-19.14A48.55,48.55,0,0,0,120.12,40.8a45.27,45.27,0,0,0-25.84.45A46.62,46.62,0,0,0,69.81,59L68,61.53l-3-.88A28.23,28.23,0,0,0,57.07,59.52Z"></path><path class="cls-2" d="M95,129.81a4.45,4.45,0,0,1-4.45-4.45V85.61a4.45,4.45,0,1,1,8.9,0v39.75A4.45,4.45,0,0,1,95,129.81Z"></path><path class="cls-3" d="M114.88,109.94H75.12a4.45,4.45,0,1,1,0-8.9h39.76a4.45,4.45,0,1,1,0,8.9Z"></path></svg> 