<?xml version="1.0" encoding="UTF-8"?> <svg xmlns="http://www.w3.org/2000/svg" xmlns:xlink="http://www.w3.org/1999/xlink" id="gradient_green" data-name="gradient green" viewBox="0 0 190 190"><defs><style>.cls-1{fill:url(#linear-gradient);}.cls-2{fill:url(#linear-gradient-2);}</style><linearGradient id="linear-gradient" x1="52.68" y1="32.59" x2="83.66" y2="148.19" gradientUnits="userSpaceOnUse"><stop offset="0" stop-color="#00c895"></stop><stop offset="1" stop-color="#00ad93"></stop></linearGradient><linearGradient id="linear-gradient-2" x1="137.69" y1="133.74" x2="173.91" y2="124.04" xlink:href="#linear-gradient"></linearGradient></defs><title>gradient_green_customers_NAV</title><path class="cls-1" d="M34.55,131.38h0c-12.15,3.11-18.22,14.22-17.09,31.28a1,1,0,0,0,1,.9l9-.55a1,1,0,0,0,.67-.33,1,1,0,0,0,.24-.71c-.33-4.06-.65-17.49,8.82-19.72,29.35-7.33,40.26-17.45,44.19-24.9a40.23,40.23,0,0,0,9.58,1.2h1.09a37.94,37.94,0,0,0,10.7-1.45c4.1,7.51,13,13.53,27.37,17.75,6.37,1.88,11.24-7.49,2.66-10.59-10.26-3.72-18-7.85-20.13-11.78a28.27,28.27,0,0,0,5.21-4.89c14.49-16.19,11.56-44.29,11.43-45.41-1.4-31.41-24.44-38.86-37.75-38.29-13.38-.56-36.42,6.88-37.82,38.22,0,.29-3,29,11.42,45.48A33.68,33.68,0,0,0,71.4,113C68.82,116.76,60.52,124.76,34.55,131.38ZM64.67,62.54c1.32-26,20-28,25.76-28h1.15c1.76-.11,10.88-.33,18,6.07,5.36,4.8,8.31,12.18,8.77,21.88v.27a1.79,1.79,0,0,0,0,.23c.32,4.14,1.43,25.38-8.77,37-4.4,4.92-10.16,7.33-18.11,7.59H91c-7.51,0-13.6-2.55-18.09-7.57C63.18,88.64,64.32,67.18,64.65,63c0,0,0-.2,0-.23Z"></path><path class="cls-2" d="M169.72,110.87,155.24,96.4h0l0,0a4.75,4.75,0,0,0-.69-.57l-.39-.21c-.14-.08-.28-.16-.43-.23s-.33-.1-.5-.15l-.39-.12A4.9,4.9,0,0,0,152,95l-.16,0h0l-.16,0a4.11,4.11,0,0,0-.78.07l-.39.12c-.17.05-.34.09-.5.15s-.29.15-.43.23l-.39.21a6.13,6.13,0,0,0-.68.56l0,0h0L134,110.87a4.76,4.76,0,0,0,6.74,6.73l6.34-6.34V160.1a4.77,4.77,0,1,0,9.53,0V111.26L163,117.6a4.76,4.76,0,0,0,6.74-6.73Z"></path></svg> 