<?xml version="1.0" encoding="UTF-8"?> <svg xmlns="http://www.w3.org/2000/svg" xmlns:xlink="http://www.w3.org/1999/xlink" id="Layer_1" data-name="Layer 1" viewBox="0 0 250 250"><defs><style>.cls-1{fill:url(#linear-gradient);}</style><linearGradient id="linear-gradient" x1="33.72" y1="125" x2="216.28" y2="125" gradientUnits="userSpaceOnUse"><stop offset="0" stop-color="#00c895"></stop><stop offset="1" stop-color="#00c895"></stop></linearGradient></defs><title>icon_dynamic</title><path class="cls-1" d="M49.57,175.79a15.85,15.85,0,1,0,15.85,15.85,15.67,15.67,0,0,0-2-7.54l8-7.9a23.08,23.08,0,0,0,12.83,3.89,23.73,23.73,0,0,0,3.39-.27L99.41,208a15.78,15.78,0,1,0,10.44-4c-.33,0-.63.07-.95.09L97.23,176.1a23,23,0,0,0,8.1-28.6l16.79-12.85a32,32,0,0,0,46.22,6l17.21,12.62a15.52,15.52,0,0,0-1,5.25,15.72,15.72,0,0,0,2.43,8.34l-13.77,14.49a19.62,19.62,0,1,0,5.12,13.13,20.45,20.45,0,0,0-.33-3.25l17-17.87a16.18,16.18,0,0,0,5.41,1,15.85,15.85,0,1,0-8.51-29.18l-16.74-12.27a32,32,0,0,0,3.31-27.48,5.14,5.14,0,1,0-9.73,3.31,21.55,21.55,0,0,1,1.15,7,21.84,21.84,0,1,1-10.14-18.45.54.54,0,0,0,.11.05c.07,0,.11.12.19.16a5.14,5.14,0,0,0,7-2.08l17.37-32.12a16,16,0,1,0-8.94-5.07L160.38,86.15A31.88,31.88,0,0,0,122.3,96.67L88.57,81A22.77,22.77,0,0,0,86,63l25-18.51a15.82,15.82,0,1,0-9.13-14.3,15.53,15.53,0,0,0,1.71,7L78.76,55.59a23.13,23.13,0,1,0,5,34.53l33.81,15.68a31.92,31.92,0,0,0-.16,19.52l-18.24,14a23.09,23.09,0,0,0-34.78,29.42l-8.5,8.4A15.63,15.63,0,0,0,49.57,175.79Zm0,21.41a5.57,5.57,0,1,1,5.56-5.57A5.57,5.57,0,0,1,49.57,197.2Zm60.28,17a5.57,5.57,0,1,1-5.57,5.57A5.57,5.57,0,0,1,109.85,214.2Zm48.81-10.28a9.43,9.43,0,1,1,9.42-9.43A9.43,9.43,0,0,1,158.66,203.92ZM196.17,155c.05-.06.12-.11.16-.17s0,0,0-.05a5.5,5.5,0,0,1,4.07-1.8,5.63,5.63,0,1,1-4.26,2ZM187.26,42.19a5.57,5.57,0,0,1,0,11.14,5.44,5.44,0,0,1-2.75-.75s-.06-.06-.1-.08-.07,0-.11,0a5.56,5.56,0,0,1,3-10.28ZM117.74,24.64a5.57,5.57,0,1,1-5.57,5.57A5.58,5.58,0,0,1,117.74,24.64ZM66.26,87.86A12.85,12.85,0,1,1,79.11,75,12.86,12.86,0,0,1,66.26,87.86Zm18,56.24A12.85,12.85,0,1,1,71.4,157,12.87,12.87,0,0,1,84.25,144.1Z"></path></svg> 