<svg id="gradient_green" data-name="gradient green" xmlns="http://www.w3.org/2000/svg" xmlns:xlink="http://www.w3.org/1999/xlink" viewBox="0 0 190 190"><defs><style>.cls-1{fill:url(#linear-gradient);}.cls-2{fill:url(#linear-gradient-2);}.cls-3{fill:url(#linear-gradient-3);}.cls-4{fill:url(#linear-gradient-4);}.cls-5{fill:url(#linear-gradient-5);}.cls-6{fill:url(#linear-gradient-6);}.cls-7{fill:url(#linear-gradient-7);}.cls-8{fill:url(#linear-gradient-8);}.cls-9{fill:url(#linear-gradient-9);}.cls-10{fill:url(#linear-gradient-10);}.cls-11{fill:url(#linear-gradient-11);}.cls-12{fill:url(#linear-gradient-12);}.cls-13{fill:url(#linear-gradient-13);}.cls-14{fill:url(#linear-gradient-14);}.cls-15{fill:url(#linear-gradient-15);}.cls-16{fill:url(#linear-gradient-16);}.cls-17{fill:url(#linear-gradient-17);}.cls-18{fill:url(#linear-gradient-18);}.cls-19{fill:url(#linear-gradient-19);}.cls-20{fill:url(#linear-gradient-20);}.cls-21{fill:url(#linear-gradient-21);}.cls-22{fill:url(#linear-gradient-22);}</style><linearGradient id="linear-gradient" x1="105.46" y1="47.6" x2="118.08" y2="94.73" gradientUnits="userSpaceOnUse"><stop offset="0" stop-color="#00c895"/><stop offset="1" stop-color="#00ad93"/></linearGradient><linearGradient id="linear-gradient-2" x1="118.01" y1="52.43" x2="129.39" y2="94.9" xlink:href="#linear-gradient"/><linearGradient id="linear-gradient-3" x1="130.8" y1="59.05" x2="140.46" y2="95.13" xlink:href="#linear-gradient"/><linearGradient id="linear-gradient-4" x1="140.94" y1="45.19" x2="154.19" y2="94.65" xlink:href="#linear-gradient"/><linearGradient id="linear-gradient-5" x1="151.39" y1="33.78" x2="167.59" y2="94.25" xlink:href="#linear-gradient"/><linearGradient id="linear-gradient-6" x1="91.67" y1="132.8" x2="106.62" y2="188.59" xlink:href="#linear-gradient"/><linearGradient id="linear-gradient-7" x1="69.39" y1="50.69" x2="73.56" y2="66.23" xlink:href="#linear-gradient"/><linearGradient id="linear-gradient-8" x1="66.46" y1="47.53" x2="70.77" y2="63.6" xlink:href="#linear-gradient"/><linearGradient id="linear-gradient-9" x1="62.83" y1="41.43" x2="66.55" y2="55.32" xlink:href="#linear-gradient"/><linearGradient id="linear-gradient-10" x1="61.43" y1="38.71" x2="64.46" y2="50.01" xlink:href="#linear-gradient"/><linearGradient id="linear-gradient-11" x1="59.86" y1="36.36" x2="62.12" y2="44.77" xlink:href="#linear-gradient"/><linearGradient id="linear-gradient-12" x1="58.1" y1="34.47" x2="59.48" y2="39.61" xlink:href="#linear-gradient"/><linearGradient id="linear-gradient-13" x1="64.08" y1="44.49" x2="68.42" y2="60.69" xlink:href="#linear-gradient"/><linearGradient id="linear-gradient-14" x1="56.22" y1="33.62" x2="56.47" y2="34.55" xlink:href="#linear-gradient"/><linearGradient id="linear-gradient-15" x1="72.16" y1="54.19" x2="76.11" y2="68.93" xlink:href="#linear-gradient"/><linearGradient id="linear-gradient-16" x1="77.2" y1="62.33" x2="80.46" y2="74.52" xlink:href="#linear-gradient"/><linearGradient id="linear-gradient-17" x1="74.73" y1="58.06" x2="78.39" y2="71.69" xlink:href="#linear-gradient"/><linearGradient id="linear-gradient-18" x1="81.25" y1="72.85" x2="83.31" y2="80.51" xlink:href="#linear-gradient"/><linearGradient id="linear-gradient-19" x1="79.42" y1="67.17" x2="82.17" y2="77.44" xlink:href="#linear-gradient"/><linearGradient id="linear-gradient-20" x1="82.19" y1="80.39" x2="82.99" y2="83.37" xlink:href="#linear-gradient"/><linearGradient id="linear-gradient-21" x1="40.32" y1="36.33" x2="57.15" y2="99.15" xlink:href="#linear-gradient"/><linearGradient id="linear-gradient-22" x1="66.73" y1="-10.52" x2="123.28" y2="200.53" xlink:href="#linear-gradient"/></defs><title>gradient_green_metrics_1_LARGE</title><rect class="cls-1" x="107.93" y="46.55" width="7.69" height="49.24" rx="1.69"/><rect class="cls-2" x="119.86" y="51.54" width="7.69" height="44.25" rx="1.69"/><rect class="cls-3" x="131.79" y="58.39" width="7.69" height="37.39" rx="1.69"/><rect class="cls-4" x="143.72" y="44.05" width="7.69" height="51.74" rx="1.69"/><rect class="cls-5" x="155.65" y="32.24" width="7.69" height="63.54" rx="1.69"/><path class="cls-6" d="M163.75,117.37,124.9,136.68a.79.79,0,0,1-.76,0l-14-8.56a.81.81,0,0,0-.74,0l-26,12a.82.82,0,0,1-.26.06l-30.62,6.7a.8.8,0,0,0-.39.14L25.44,171.77a.78.78,0,0,0,.46,1.42H164a.78.78,0,0,0,.79-.78l.11-54.33A.78.78,0,0,0,163.75,117.37Z"/><path class="cls-7" d="M62.41,69.22l19.79-20q-.53-.84-1.08-1.65L60.84,68.06Z"/><path class="cls-8" d="M59.05,66.74l20.74-21c-.4-.5-.82-1-1.25-1.47L57.49,65.59Z"/><path class="cls-9" d="M55.92,58.17,73.86,40c-.53-.39-1.06-.77-1.61-1.12L55.92,55.43v2.74Z"/><path class="cls-10" d="M55.92,52.3,70.33,37.73c-.59-.33-1.19-.63-1.8-.92L55.92,49.56Z"/><path class="cls-11" d="M55.92,46.43,66.37,35.86c-.66-.26-1.33-.49-2-.7l-8.44,8.53Z"/><path class="cls-12" d="M55.92,40.56l6-6.08c-.75-.17-1.52-.31-2.29-.42l-3.72,3.76Z"/><path class="cls-13" d="M55.92,64,77,42.71c-.47-.45-.94-.88-1.43-1.3L55.92,61.3Z"/><path class="cls-14" d="M56.85,33.75l-.93,0v1Z"/><path class="cls-15" d="M65.76,71.7,84.2,53.05c-.27-.63-.57-1.25-.88-1.85L64.2,70.54Z"/><path class="cls-16" d="M72.47,76.66,86.72,62.25c-.1-.8-.22-1.59-.37-2.37L70.91,75.5Z"/><path class="cls-17" d="M69.12,74.18,85.74,57.36c-.19-.7-.41-1.4-.65-2.08L67.55,73Z"/><path class="cls-18" d="M79.18,81.62l6.6-6.68a33.67,33.67,0,0,0,.77-3.51l-8.93,9Z"/><path class="cls-19" d="M75.83,79.14,86.91,67.92c0-.56,0-1.13,0-1.7,0-.36,0-.71,0-1.06L74.26,78Z"/><path class="cls-20" d="M81.94,83.65a33.65,33.65,0,0,0,2-3.74l-3,3Z"/><path class="cls-21" d="M54.74,98.67a32.55,32.55,0,0,1-1.21-65.06v32.2h0L80.44,85.68h0A32,32,0,0,1,54.74,98.67Z"/><path class="cls-22" d="M164.09,188.71H25.91A24.62,24.62,0,0,1,1.29,164.09V25.92A24.62,24.62,0,0,1,25.91,1.29H164.09a24.62,24.62,0,0,1,24.62,24.63V164.09A24.62,24.62,0,0,1,164.09,188.71ZM26.62,8.33A18.29,18.29,0,0,0,8.33,26.62V163.39a18.29,18.29,0,0,0,18.28,18.28H163.39a18.29,18.29,0,0,0,18.28-18.28V26.62A18.29,18.29,0,0,0,163.38,8.33Z"/></svg>