<svg xmlns="http://www.w3.org/2000/svg" xmlns:xlink="http://www.w3.org/1999/xlink" viewBox="0 0 192.61 180.99"><defs><style>.cls-1{fill:url(#linear-gradient);}.cls-2{fill:url(#linear-gradient-2);}.cls-3{fill:url(#linear-gradient-3);}</style><linearGradient id="linear-gradient" x1="79.58" y1="51.29" x2="113.52" y2="177.93" gradientUnits="userSpaceOnUse"><stop offset="0" stop-color="#00c895"/><stop offset="1" stop-color="#00ad93"/></linearGradient><linearGradient id="linear-gradient-2" x1="94.23" y1="22.15" x2="101.49" y2="49.24" xlink:href="#linear-gradient"/><linearGradient id="linear-gradient-3" x1="87.28" y1="1.18" x2="105.33" y2="68.56" xlink:href="#linear-gradient"/></defs><title>gradient_green_Hand_Shake_Check_LARGE</title><g id="Layer_2" data-name="Layer 2"><g id="gradient_green" data-name="gradient green"><path class="cls-1" d="M192.47,112.58a4.38,4.38,0,0,0-4.23-3.24,4.69,4.69,0,0,0-1.11.14l-23.59,6.28a4.3,4.3,0,0,0-2.08,1.25l-13.19,14.2L99.37,99.52A9.74,9.74,0,0,0,94.07,98a9.86,9.86,0,0,0-4.52,1.1L66.79,111a1.08,1.08,0,0,1-.47.11,1,1,0,0,1-.62-.21,1,1,0,0,1-.4-.68,1,1,0,0,1,.21-.75L76.22,95.5a10.81,10.81,0,0,1,6.61-4l12.56-2.33a52.34,52.34,0,0,1,20.38.23l13.37,2.81a9.67,9.67,0,0,0,5.64-.5,4.21,4.21,0,0,0,.93-.51l26.57-19.23a4.36,4.36,0,0,0,1-6.09,4.4,4.4,0,0,0-2.85-1.75,4.12,4.12,0,0,0-.7,0,4.33,4.33,0,0,0-2.55.82l-26,18.79h-.06a.76.76,0,0,1-.21,0l-13.36-2.8a60.66,60.66,0,0,0-23.77-.28L81.23,82.88A19.45,19.45,0,0,0,72,87.38L60.84,85.61h-.06L35.38,65a4.27,4.27,0,0,0-2.73-1,3.71,3.71,0,0,0-.47,0,4.37,4.37,0,0,0-2.29,7.73l25.88,21a5,5,0,0,0,.74.49,9.71,9.71,0,0,0,3,1l6,1-6.87,8.94a9.75,9.75,0,0,0,1.84,13.71,9.79,9.79,0,0,0,10.4.87l22.76-11.9a1,1,0,0,1,.48-.12,1,1,0,0,1,.55.17l49,31.74a3.55,3.55,0,0,1-1.93,6.54,3.51,3.51,0,0,1-1.83-.51l-26.49-15.85a4.35,4.35,0,0,0-2.23-.61,4.36,4.36,0,0,0-2.25,8.1l23.75,14.21a1.8,1.8,0,0,1,.58,2.53,4.4,4.4,0,0,1-3.69,2,4.29,4.29,0,0,1-2.08-.53l-20.71-11.28a4.36,4.36,0,0,0-2.08-.54,4.7,4.7,0,0,0-1.24.18,4.37,4.37,0,0,0-.85,8L117.46,159l3.67,2.24a1.6,1.6,0,0,1,.45,2.31,2.7,2.7,0,0,0-.18.25,3.83,3.83,0,0,1-5,1.36l-16-8.14a4.5,4.5,0,0,0-2-.47,4.36,4.36,0,0,0-2,8.25l11.13,5.65a12.53,12.53,0,0,1-4.44.83,11.79,11.79,0,0,1-1.87-.15l-10.07-1.54A10.55,10.55,0,0,0,89,155.93a9.92,9.92,0,0,0-3.21-1.76,11.22,11.22,0,0,0-4-10.8A11.44,11.44,0,0,0,76.24,141a10,10,0,0,0-.18-1.59A11.28,11.28,0,0,0,65,130.3a11.59,11.59,0,0,0-8.3,3.52,10.89,10.89,0,0,0-2.44-2,11.37,11.37,0,0,0-6-1.71,11.24,11.24,0,0,0-6.74,2.25L31,118.4a4.35,4.35,0,0,0-2.15-1.53L5.68,109.54a4.48,4.48,0,0,0-1.31-.2A4.36,4.36,0,0,0,3,117.86l21.8,6.91L35.9,139.36l-2.78,4a11.29,11.29,0,0,0,2.63,15.56,2.11,2.11,0,0,0,.29.2,11.17,11.17,0,0,0,5.1,2,11.46,11.46,0,0,0,4.75,8.16,11.3,11.3,0,0,0,6.55,2.08,11.62,11.62,0,0,0,2-.19,6.53,6.53,0,0,0,.71-.16,11.35,11.35,0,0,0,14,5.52A10.45,10.45,0,0,0,77.81,181a10.38,10.38,0,0,0,7.73-3.48l14.41,2.2a22,22,0,0,0,3.24.25,21,21,0,0,0,14.38-5.71l.7,0a12.41,12.41,0,0,0,10.41-5.7,10.46,10.46,0,0,0,1.86-4.92,13.19,13.19,0,0,0,10-5.85,10.2,10.2,0,0,0,1.53-3.94,12.29,12.29,0,0,0,11.67-14.8,5.92,5.92,0,0,0-.18-.67L167,123.87l22.37-6A4.37,4.37,0,0,0,192.47,112.58ZM83.75,165l-4.56,6.54a1.71,1.71,0,0,1-1.4.73A1.7,1.7,0,0,1,76.14,170l5-7.21a1.74,1.74,0,0,1,1-.54h.24a1.71,1.71,0,0,1,1.41,2.7Zm-21,1.44a2.61,2.61,0,0,1,.07-1.49l9.79-14.35a2.59,2.59,0,0,1,1.68-1,2.59,2.59,0,0,1,2,.56,2.64,2.64,0,0,1,.51,3.54L74,157.79a2.11,2.11,0,0,0-.19.23l-4.56,6.55a6.16,6.16,0,0,0-.32.57c0,.07-.06.13-.08.16l-1.37,2a2.65,2.65,0,0,1-2.17,1.15,2.66,2.66,0,0,1-2.57-2Zm-11.17-9.85c.09-.11.18-.21.26-.32,1.84-2.69,4-5.89,5.85-8.6a2,2,0,0,0,.15-.27l5-7.24A2.64,2.64,0,0,1,64.93,139a2.6,2.6,0,0,1,1.43.42,2.64,2.64,0,0,1,1.14,1.69,2.58,2.58,0,0,1-.41,2L55.9,159.36a5.32,5.32,0,0,0-.36.64l-.09.19-.84,1.22a2.63,2.63,0,0,1-3.69.67,2.65,2.65,0,0,1-.67-3.65l1.26-1.84h0Zm-1-14-6.17,9.05a2.5,2.5,0,0,1-1.41.79,2.28,2.28,0,0,1-.45,0,2.46,2.46,0,0,1-1.45-.47l-.19-.14a2.51,2.51,0,0,1-.59-3.48l5.93-8.48a2.58,2.58,0,0,1,4.6,1A2.38,2.38,0,0,1,50.53,142.54Z"/><path class="cls-2" d="M88.26,50.92A3.43,3.43,0,0,0,90.69,52h0a3.53,3.53,0,0,0,.56,0,3.36,3.36,0,0,0,2.54-2c.08-.18,8.13-18,19.25-26.09a3.39,3.39,0,0,0-4-5.49C99.9,25.08,92.88,37,89.87,42.71L84,36.39a3.39,3.39,0,0,0-2.36-1.08h-.1A3.39,3.39,0,0,0,79,41Z"/><path class="cls-3" d="M96.31,69.75A34.88,34.88,0,1,0,61.43,34.88,34.91,34.91,0,0,0,96.31,69.75Zm0-61.87a27,27,0,1,1-27,27A27,27,0,0,1,96.31,7.88Z"/></g></g></svg>