<?xml version="1.0" encoding="UTF-8"?> <svg xmlns="http://www.w3.org/2000/svg" xmlns:xlink="http://www.w3.org/1999/xlink" id="icon_appliance" data-name="Layer 1" viewBox="0 0 200 200"><defs><style>.cls-1{fill:url(#linear-gradient);}.cls-2{fill:url(#linear-gradient-2);}.cls-3{fill:url(#linear-gradient-3);}</style><linearGradient id="linear-gradient" x1="82.84" y1="35.97" x2="117.16" y2="164.03" gradientUnits="userSpaceOnUse"><stop offset="0" stop-color="#00c895"></stop><stop offset="1" stop-color="#00ad93"></stop></linearGradient><linearGradient id="linear-gradient-2" x1="46.71" y1="76.93" x2="59.07" y2="123.07" xlink:href="#linear-gradient"></linearGradient><linearGradient id="linear-gradient-3" x1="125.34" y1="85.62" x2="133.05" y2="114.38" xlink:href="#linear-gradient"></linearGradient></defs><title>Appliance</title><path class="cls-1" d="M145.49,154.51h-91a54.51,54.51,0,0,1,0-109h91a54.51,54.51,0,0,1,0,109Zm-91-99.78a45.27,45.27,0,0,0,0,90.54h91a45.27,45.27,0,0,0,0-90.54Z"></path><path class="cls-2" d="M52.89,123.89A23.89,23.89,0,1,1,76.77,100,23.92,23.92,0,0,1,52.89,123.89Zm0-38.53A14.64,14.64,0,1,0,67.53,100,14.65,14.65,0,0,0,52.89,85.36Z"></path><path class="cls-3" d="M168.86,104.62H89.53a4.62,4.62,0,0,1,0-9.24h79.33a4.62,4.62,0,0,1,0,9.24Z"></path></svg> 