<?xml version="1.0" encoding="UTF-8"?> <svg xmlns="http://www.w3.org/2000/svg" xmlns:xlink="http://www.w3.org/1999/xlink" id="gradient_green" data-name="gradient green" viewBox="0 0 190 190"><defs><style>.cls-1{fill:url(#linear-gradient);}.cls-2{fill:url(#linear-gradient-2);}</style><linearGradient id="linear-gradient" x1="52.96" y1="53.2" x2="82.87" y2="164.8" gradientUnits="userSpaceOnUse"><stop offset="0" stop-color="#00c895"></stop><stop offset="1" stop-color="#00ad93"></stop></linearGradient><linearGradient id="linear-gradient-2" x1="143.42" y1="59.95" x2="165.63" y2="142.84" xlink:href="#linear-gradient"></linearGradient></defs><title>gradient_green_leadership_NAV</title><path class="cls-1" d="M137.48,121.68c-18.26-4.57-24.13-10-26-12.73a23.83,23.83,0,0,0,3.23-3.17c10.74-12,8.69-32.48,8.55-33.76-.46-10.11-3.92-17.81-10.29-22.91a28.13,28.13,0,0,0-17.14-5.88l-1,0-1,0A28.27,28.27,0,0,0,76.63,49.1C70.25,54.19,66.79,61.88,66.33,72c-.1,1-2,21.72,8.55,33.8a22.83,22.83,0,0,0,3.88,3.47c-2.06,2.48-7.66,7.16-22.29,11.33a1.86,1.86,0,0,0,.33-.41L60,114.41a1.66,1.66,0,0,0,.14-1.29,1.69,1.69,0,0,0-.82-1,17.14,17.14,0,0,1-3.54-2.43,9.19,9.19,0,0,0,1.87-2c8-9.06,6.68-23.9,6.53-25.36-.78-16.42-12.07-22.25-21.51-22.25H41.46c-9.46,0-20.78,5.8-21.55,22.15-.15,1.35-1.51,16.16,6.55,25.3A12.08,12.08,0,0,0,28,109.09c-1.74,1.75-6.23,4.94-17.29,7.83C3.37,118.69-.6,125.65.06,135.54a1.69,1.69,0,0,0,1.69,1.57h.08l6.57-.4A1.68,1.68,0,0,0,10,134.93c-.29-4.93.76-7.75,3.11-8.39,15.14-3.78,21.42-8.93,24-12.8a20.36,20.36,0,0,0,4.55.56h.79a20.45,20.45,0,0,0,4-.36,23.6,23.6,0,0,0,8.11,6.88A1.58,1.58,0,0,0,55,121l-1.85.48c-9.35,2.4-14,10.84-13.17,23.78a1.7,1.7,0,0,0,1.68,1.58h.12l6.54-.39a1.7,1.7,0,0,0,1.58-1.83c-.22-2.75-.46-11.86,5.66-13.3,21-5.25,29.23-12.52,32.41-17.94a30.78,30.78,0,0,0,6.47.73h.8a28.86,28.86,0,0,0,7.3-.89c3.31,5.45,11.67,12.78,32.56,18.1,5.76,1.48,6,9.09,5.68,13.5a1.69,1.69,0,0,0,.4,1.24,1.66,1.66,0,0,0,1.18.58l6.55.4h.1a1.69,1.69,0,0,0,1.69-1.57C151.5,132.76,146.7,124.09,137.48,121.68ZM29.37,109l-.64-.53.64.53Zm-.53-26.5v.16s0,.14,0,.16,0-.14,0-.16Zm0,5.64a42.33,42.33,0,0,1,0-4.82A42.33,42.33,0,0,0,28.81,88.12Zm0-5.64h0a20.82,20.82,0,0,1,.87-5.34A20.82,20.82,0,0,0,28.84,82.48Zm1,.39a1.52,1.52,0,0,0,0-.23v-.17c.49-11.15,7.48-12.82,11.6-12.82H42c5.23,0,11.56,2.23,12,12.84v.15s0,.11,0,.17h0v.05c.15,2,.63,12.46-4.16,17.91-1.79,2.12-4.49,3.19-8,3.19a10.22,10.22,0,0,1-8.07-3.21C29.17,95.52,29.67,84.94,29.81,82.87Zm.27-6.78a6,6,0,0,1,.27-.63A6,6,0,0,0,30.08,76.09Zm1.19-2.34a12.5,12.5,0,0,1,1.05-1.36A12.5,12.5,0,0,0,31.27,73.75Zm21.67.58.26.46Zm-1.69-2.24c.2.21.41.43.6.66C51.66,72.52,51.45,72.3,51.25,72.09Zm-.16-9.3.4.17Zm.85.38.39.2Zm.83.43.38.21Zm.82.47.37.23Zm.79.51c.13.08.25.17.37.26C54.63,64.75,54.51,64.66,54.38,64.58Zm-4.15-2.13.41.15ZM42,68.66h-.59a14.73,14.73,0,0,0-2.93.3,11.6,11.6,0,0,0-5,2.31,6.4,6.4,0,0,0-.49.42,6.4,6.4,0,0,1,.49-.42,11.6,11.6,0,0,1,5-2.31,14.73,14.73,0,0,1,2.93-.3H42a14.78,14.78,0,0,1,5.86,1.14A14.78,14.78,0,0,0,42,68.66Zm7.36,1.93c.24.15.46.3.69.47C49.84,70.89,49.62,70.74,49.38,70.59Zm-16-8,.44-.17Zm.86-.32.45-.15Zm.87-.28.45-.13Zm.88-.24.45-.11Zm.89-.2.45-.09Zm.88-.17.46-.07ZM32.55,63l.44-.19Zm-1.66.85.41-.24Zm.82-.45.43-.21Zm-3.19,2.05.39-.3Zm.77-.58.4-.28Zm.79-.53.41-.26Zm-2.31,1.74.38-.33Zm2.43,30.1c-.24-.73-.44-1.47-.61-2.21C29.76,94.68,30,95.42,30.2,96.15ZM33,101.43a11.57,11.57,0,0,0,1.67,1.48A11.57,11.57,0,0,1,33,101.43a14.39,14.39,0,0,1-2.58-4.58A14.39,14.39,0,0,0,33,101.43Zm7.42,3.48a12,12,0,0,1-4.1-1A12,12,0,0,0,40.45,104.91Zm1.38,0c.48,0,.94,0,1.4-.06-.46,0-.92.06-1.4.06Zm5.09-.89a11.45,11.45,0,0,1-2.37.67A11.45,11.45,0,0,0,46.92,104.07Zm3.7-2.63a14.78,14.78,0,0,0,2.29-3.68,14.78,14.78,0,0,1-2.29,3.68A9.31,9.31,0,0,1,49,103,9.31,9.31,0,0,0,50.62,101.44Zm3.69,8.12c.33-.26.69-.54,1-.84-.34.3-.7.58-1,.84h0a9.6,9.6,0,0,0,1.11,1.12,9.6,9.6,0,0,1-1.11-1.12Zm.85-44.42.36.28ZM58.82,113a.72.72,0,0,1,.29,1l-3.18,5.75a.6.6,0,0,1-.18.21.7.7,0,0,1-.24.13l-.19,0h0a.59.59,0,0,0,.23,0,.7.7,0,0,0,.24-.13.6.6,0,0,0,.18-.21l3.18-5.75a.72.72,0,0,0-.29-1,19.36,19.36,0,0,1-3.28-2.17A19.36,19.36,0,0,0,58.82,113Zm-.16-44.34.3.4Zm.61.85c.1.14.19.28.28.43C59.46,69.77,59.37,69.63,59.27,69.49Zm.58.89.26.47Zm.53,1c.09.16.17.33.25.49C60.55,71.67,60.47,71.5,60.38,71.34Zm.5,1c.08.17.15.35.23.53C61,72.69,61,72.51,60.88,72.34Zm.45,1.06c.08.19.15.38.22.57C61.48,73.78,61.41,73.59,61.33,73.4Zm.42,1.12c.06.2.12.4.19.61C61.87,74.92,61.81,74.72,61.75,74.52Zm.36,1.17c.06.21.12.44.17.66C62.23,76.13,62.17,75.9,62.11,75.69Zm.32,1.22.15.73Zm.26,1.29c.05.26.09.53.13.8C62.78,78.73,62.74,78.46,62.69,78.2Zm.21,1.34c.05.31.08.64.11,1C63,80.18,63,79.85,62.9,79.54Zm.43,7.52c0-.5,0-1,0-1.41C63.34,86.08,63.34,86.56,63.33,87.06Zm-.08-3.57c0-.27,0-.49,0-.67C63.22,83,63.24,83.22,63.25,83.49Zm-.07-.89c0-.12,0-.18,0-.19,0-.5-.06-1-.1-1.46,0,.48.08,1,.1,1.46C63.16,82.42,63.17,82.48,63.18,82.6ZM57.67,67.44c-.11-.11-.21-.23-.32-.35C57.46,67.21,57.56,67.33,57.67,67.44Zm.66.78L58,67.84ZM57,66.72l-.34-.33Zm-1.07-1,.35.3Zm-6.13-3.46-.41-.13ZM48.91,62l-.42-.11ZM48,61.76l-.42-.1Zm-.88-.2-.42-.08Zm-.88-.16-.43-.07Zm-.88-.13-.43,0Zm-.88-.09-.44,0Zm-.87,0-.44,0Zm-.86,0h0Zm-.74,0Zm-3.36.17.45-.06Zm.88-.1.45,0Zm.88,0,.45,0Zm-13,5.24-.36.35ZM26,67.81l-.34.41Zm.68-.74-.36.38ZM25.4,68.61l-.32.43Zm-.62.84-.3.47Zm-.57.9c-.1.16-.19.33-.28.49C24,70.68,24.11,70.51,24.21,70.35Zm-.54,1c-.09.17-.17.35-.26.52C23.5,71.65,23.58,71.47,23.67,71.3Zm-.5,1-.24.55Zm-.45,1.06c-.08.19-.15.38-.22.58C22.57,73.74,22.64,73.55,22.72,73.36Zm-.41,1.11c-.07.2-.13.41-.2.62C22.18,74.88,22.24,74.67,22.31,74.47Zm-.37,1.16c-.06.22-.11.45-.17.67C21.83,76.08,21.88,75.85,21.94,75.63Zm-.31,1.23c-.06.23-.1.47-.15.7C21.53,77.33,21.57,77.09,21.63,76.86Zm-.27,1.28-.12.76Zm-.21,1.34c0,.28-.06.56-.09.85C21.09,80,21.11,79.76,21.15,79.48ZM21,80.88c0,.38,0,.78-.08,1.19C20.94,81.66,21,81.26,21,80.88Zm0,10.35c-.14-1.24-.22-2.42-.26-3.48,0-.53,0-1,0-1.5,0,.47,0,1,0,1.5,0,1.06.12,2.24.26,3.48a39,39,0,0,0,.64,3.9A39,39,0,0,1,21,91.23ZM1.48,136.07a.62.62,0,0,0,.27.05h0A.62.62,0,0,1,1.48,136.07Zm.31.05h0l5.87-.35Zm11-10.53c-2.15.58-3.41,2.51-3.77,5.73A20.72,20.72,0,0,0,9,135a.53.53,0,0,1,0,.28A.53.53,0,0,0,9,135a20.72,20.72,0,0,1,.07-3.66c.36-3.22,1.62-5.15,3.77-5.73,2.91-.73,5.48-1.5,7.76-2.31C18.31,124.09,15.74,124.86,12.83,125.59Zm9.94-3.12c1.39-.55,2.65-1.11,3.8-1.67C25.42,121.36,24.16,121.92,22.77,122.47ZM31,118.25c-.83.56-1.76,1.13-2.8,1.7,1-.57,2-1.14,2.8-1.7a18.16,18.16,0,0,0,5.61-5.63h0A18.16,18.16,0,0,1,31,118.25Zm6.18-5.5c.57.13,1.15.25,1.78.34C38.34,113,37.76,112.88,37.19,112.75Zm12.86,3.79a16,16,0,0,1-3.21-3.72h0a16,16,0,0,0,3.21,3.72A29.2,29.2,0,0,0,55,120h0A29.2,29.2,0,0,1,50.05,116.54Zm99.17,20.15a18.83,18.83,0,0,0-5.08-10.22A18.83,18.83,0,0,1,149.22,136.69Zm-12-14a15.77,15.77,0,0,1,3.84,1.56,15.77,15.77,0,0,0-3.84-1.56c-9.37-2.35-15.57-4.93-19.66-7.31C121.66,117.71,127.86,120.29,137.23,122.64Zm6.77,3.71a15,15,0,0,0-1.93-1.54A15,15,0,0,1,144,126.35Zm-28-12c-.47-.3-.91-.61-1.32-.91C115.13,113.78,115.57,114.09,116,114.39Zm-40.78-42v0Zm32,26.63c-3,3.35-7,5-12.46,5.18H94.4c-5.16,0-9.34-1.74-12.41-5.18-6.8-8-6-23.24-5.75-26.22,0,0,0-.22,0-.24v-.14C77.18,54.38,90.08,53,94,53h.9l.81,0a17.71,17.71,0,0,1,11.57,4.19c3.7,3.3,5.74,8.43,6.06,15.22v.16s0,.23,0,.26C113.59,75.71,114.39,90.8,107.23,99ZM94.85,52h0Zm.46,0h0Zm19.14,22.38c0-.73-.07-1.3-.1-1.67v0c0,.37.07.94.1,1.67,0,1.09.07,2.53,0,4.18C114.52,76.89,114.49,75.45,114.45,74.36Zm-.38-5c0,.2.05.39.07.59C114.12,69.77,114.09,69.58,114.07,69.38Zm-3-20.46.52.37Zm1,.75c.18.13.35.27.51.4C112.43,49.94,112.26,49.8,112.08,49.67Zm-2.75,8.13A16.35,16.35,0,0,0,108,56.41h0A16.35,16.35,0,0,1,109.33,57.8ZM107.87,47l.55.27Zm1.08.56.54.31Zm1.06.63.54.34ZM96,52h0Zm.69,0h0Zm.72,0,.21,0Zm.73.08.28,0Zm.78.11.32.06Zm.85.16.33.07Zm.92.21.3.07Zm1.16.33.07,0Zm1,.35a2.52,2.52,0,0,0,.29.12A2.52,2.52,0,0,1,102.81,53.28Zm1,.41.36.17Zm1,.48a3.59,3.59,0,0,1,.38.21A3.59,3.59,0,0,0,104.73,54.17Zm1,.56.37.24Zm1,.69.31.22Zm-25.54-8.1.61-.3Zm1.09-.54.61-.27Zm1.09-.48.62-.24Zm-3.25,1.62.59-.34ZM78,49.29l.56-.4Zm1-.72.58-.36Zm-2,1.51.55-.43Zm-1,.86c.17-.17.35-.32.53-.48C76.37,50.62,76.19,50.77,76,50.94ZM75.23,73v0Zm6,26.61A15.85,15.85,0,0,0,87,103.77a15.85,15.85,0,0,1-5.75-4.12c-4.2-4.93-5.61-12.44-6-18.36C75.64,87.21,77.05,94.72,81.25,99.65Zm7.45,4.73a20,20,0,0,0,5.7.78h0A20,20,0,0,1,88.7,104.38Zm25.28.76a23.79,23.79,0,0,1-2.86,2.84,23.79,23.79,0,0,0,2.86-2.84c10.53-11.78,8.4-32.22,8.31-33s-.08-1.39-.14-2.06c.06.67.11,1.35.14,2.06S124.51,93.36,114,105.14Zm1.47-52.29c-.15-.18-.31-.35-.46-.52C115.14,52.5,115.3,52.67,115.45,52.85Zm6.63,16.55c0-.45-.09-.89-.15-1.32C122,68.51,122,69,122.08,69.4Zm-.27-2.06c-.06-.38-.12-.76-.19-1.12C121.69,66.58,121.75,67,121.81,67.34Zm-.35-1.89c-.07-.34-.14-.68-.22-1C121.32,64.77,121.39,65.11,121.46,65.45ZM121,63.69c-.08-.31-.17-.63-.26-.93C120.87,63.06,121,63.38,121,63.69ZM120.55,62c-.1-.29-.19-.58-.29-.86C120.36,61.45,120.45,61.74,120.55,62ZM120,60.46c-.11-.27-.21-.54-.32-.8C119.78,59.92,119.88,60.19,120,60.46ZM119.37,59c-.12-.25-.23-.5-.35-.74C119.14,58.48,119.25,58.73,119.37,59Zm-.69-1.38c-.12-.24-.24-.47-.37-.7C118.44,57.13,118.56,57.36,118.68,57.6ZM118,56.29c-.13-.22-.26-.44-.4-.65C117.69,55.85,117.82,56.07,118,56.29Zm-.79-1.23-.42-.6Zm-.83-1.14-.45-.56Zm-1.8-2.07-.48-.48Zm-1.45-1.36.5.44ZM96.37,44.23h0Zm11,2.55-.55-.25Zm-1.09-.48-.56-.22Zm-1.09-.42-.56-.19Zm-1.1-.37-.56-.17ZM103,45.19l-.57-.14Zm-1.09-.27c-.19-.05-.38-.08-.58-.12C101.51,44.84,101.7,44.87,101.89,44.92Zm-1.06-.22-.61-.11Zm-1.06-.18-.71-.09Zm-1-.13-1-.1Zm-1.35-.12-.64,0Zm-2.56,0Zm-1,0h0Zm-9.4,1.66.62-.21Zm1.1-.37.62-.18Zm1.09-.32.63-.16Zm1.09-.27.65-.13Zm1.07-.22.68-.12Zm1.06-.18.75-.1Zm1-.13,1-.1Zm1.26-.11.74,0ZM75.58,51.35c-.17.16-.35.34-.51.51C75.23,51.69,75.41,51.51,75.58,51.35Zm-.94,1c-.17.17-.33.36-.49.54C74.31,52.67,74.47,52.48,74.64,52.31Zm-.9,1c-.16.2-.32.39-.47.59C73.42,53.72,73.58,53.53,73.74,53.33Zm-.86,1.11c-.15.2-.3.41-.44.63C72.58,54.85,72.73,54.64,72.88,54.44Zm-.81,1.18c-.15.22-.28.44-.42.67C71.79,56.06,71.92,55.84,72.07,55.62Zm-.77,1.25-.39.72Zm-.71,1.34-.36.77Zm-.65,1.42-.33.82Zm-.59,1.51c-.1.28-.2.58-.29.87C69.15,61.72,69.25,61.42,69.35,61.14Zm-.53,1.59c-.09.3-.17.62-.25.93C68.65,63.35,68.73,63,68.82,62.73Zm-.45,1.68c-.08.33-.15.66-.22,1C68.22,65.07,68.29,64.74,68.37,64.41ZM68,66.18c-.07.36-.13.73-.19,1.1C67.86,66.91,67.92,66.54,68,66.18ZM67.68,68c-.06.42-.1.85-.15,1.28C67.58,68.89,67.62,68.46,67.68,68Zm-.22,2c-.06.64-.1,1.3-.14,2C67.36,71.3,67.4,70.64,67.46,70Zm8.16,35.13c-7.22-8.23-8.45-20.68-8.5-27.73,0-.64,0-1.23,0-1.78,0,.55,0,1.14,0,1.78,0,7,1.28,19.5,8.5,27.73.29.33.6.65.93,1C76.22,105.78,75.91,105.46,75.62,105.13Zm2,2c.56.49,1.2,1,1.87,1.47C78.81,108.05,78.17,107.57,77.61,107.08Zm-28.8,34.29c0,.36,0,.71,0,1C48.79,142.08,48.8,141.73,48.81,141.37ZM41,145.45a.56.56,0,0,1-.07-.26A.56.56,0,0,0,41,145.45Zm0,.08a.63.63,0,0,0,.11.13A.45.45,0,0,1,41.05,145.53Zm.33.27-.14-.08Zm6.84-.35-6.55.39h-.05a.5.5,0,0,1-.13,0,.55.55,0,0,0,.18,0l6.55-.39a.7.7,0,0,0,.48-.24A.7.7,0,0,1,48.22,145.45ZM50.7,133.8A14.4,14.4,0,0,0,49,139.4a14.4,14.4,0,0,1,1.73-5.6A7.5,7.5,0,0,1,53,131.31,7.5,7.5,0,0,0,50.7,133.8Zm4.59-3.45a7.45,7.45,0,0,0-1.21.39,7.45,7.45,0,0,1,1.21-.39q4-1,7.39-2.09Q59.29,129.34,55.29,130.35ZM84.21,116.6c-.56.58-1.17,1.16-1.86,1.75a36.63,36.63,0,0,1-3.14,2.38c-.59.39-1.22.79-1.88,1.19a66.78,66.78,0,0,1-13,5.79,66.78,66.78,0,0,0,13-5.79c.66-.4,1.29-.8,1.88-1.19a36.63,36.63,0,0,0,3.14-2.38c.69-.59,1.3-1.17,1.86-1.75a20.17,20.17,0,0,0,1.48-1.7,16.92,16.92,0,0,0,1.74-2.66h0a16.92,16.92,0,0,1-1.74,2.66A20.17,20.17,0,0,1,84.21,116.6Zm13-3.56c-.66,0-1.34.07-2,.07h0c.69,0,1.37,0,2-.07a26.42,26.42,0,0,0,5.75-1h0A26.42,26.42,0,0,1,97.23,113Zm43,21.4a7.5,7.5,0,0,0-5-4.09c-2.66-.68-5.11-1.39-7.37-2.12q-2.55-.82-4.78-1.68,2.23.86,4.78,1.68c2.26.73,4.71,1.44,7.37,2.12a7.5,7.5,0,0,1,5,4.09,11.61,11.61,0,0,1,.81,2A11.61,11.61,0,0,0,140.27,134.44Zm1.31,4.34c-.06-.41-.14-.82-.22-1.23C141.44,138,141.52,138.37,141.58,138.78Zm8.09,6.61a.74.74,0,0,1-.22.47.75.75,0,0,1-.48.18h0l-6.55-.39a.74.74,0,0,1-.49-.24s0-.09-.08-.14.05.1.08.14a.74.74,0,0,0,.49.24l6.55.39h0a.75.75,0,0,0,.48-.18.74.74,0,0,0,.22-.47,37.94,37.94,0,0,0,.05-4.38,29.34,29.34,0,0,0-.39-3.75,29.34,29.34,0,0,1,.39,3.75A37.94,37.94,0,0,1,149.67,145.39Z"></path><path class="cls-2" d="M179.36,116.33c-10.55-2.57-15.14-5.61-17.11-7.58a11.52,11.52,0,0,0,1.32-1.42c8-9,6.69-23.9,6.53-25.37-.78-16.42-12.06-22.24-21.49-22.25h-1.25c-9.43,0-20.72,5.81-21.5,22.17-.11.94-1.71,16.35,6.6,25.54h0l0,0c.57.57,1.15,1.15,1.74,1.71a19.69,19.69,0,0,1-3.57,2.57A1.7,1.7,0,0,0,130,114l3.17,5.75a1.72,1.72,0,0,0,1,.81,1.77,1.77,0,0,0,.46.07,1.72,1.72,0,0,0,.83-.22,23.71,23.71,0,0,0,8.12-6.91,21.22,21.22,0,0,0,4,.38h.79a20.49,20.49,0,0,0,4.58-.56c2.8,4,9.22,9.26,24,12.81,2.33.64,3.38,3.46,3.09,8.38a1.7,1.7,0,0,0,1.58,1.79l6.55.39h.1a1.7,1.7,0,0,0,1.69-1.58C190.59,125.19,186.73,118.34,179.36,116.33Zm8.06,8.2a13.16,13.16,0,0,0-1-1.86A13.16,13.16,0,0,1,187.42,124.53Zm-2.86-4.19a11.64,11.64,0,0,0-1.95-1.53A11.64,11.64,0,0,1,184.56,120.34Zm-12.69-5.19-1-.37ZM155.8,100.81l0,0,0,0c-1.58,2.06-4.2,3.11-7.78,3.11s-6.21-1-8-3.18c-5.09-5.79-4.2-17.55-4.16-18.05v-.27c.49-11.15,7.48-12.82,11.6-12.82h.6c5.23,0,11.55,2.23,12,12.84v.32h0v.05C160.13,84.9,160.61,95.33,155.8,100.81ZM155,70.4a10.79,10.79,0,0,1,1,.66A10.79,10.79,0,0,0,155,70.4ZM157,71.86a10.62,10.62,0,0,1,1.3,1.5A10.62,10.62,0,0,0,157,71.86Zm1.74-8.66.4.22Zm.82.46.39.25Zm.8.52.38.26Zm-2.45-1.41.41.2Zm-.84-.38.41.18Zm-.86-.34.42.16Zm-.87-.3.43.14Zm-.87-.26.43.12ZM148,68.66h-.6a15.2,15.2,0,0,0-2.84.28,15.2,15.2,0,0,1,2.84-.28h.6a14.41,14.41,0,0,1,6.53,1.45A14.41,14.41,0,0,0,148,68.66ZM139.83,71a9,9,0,0,1,.94-.62A9,9,0,0,0,139.83,71Zm1.17-.76A12,12,0,0,1,144.31,69,12,12,0,0,0,141,70.22ZM134.44,65l.41-.32Zm.77-.58.42-.3Zm.78-.54.44-.27Zm.81-.49.45-.25Zm.83-.45.45-.22Zm.83-.4.47-.21ZM134.78,82.7c-.05.72-.62,8.53,2,14.69C134.16,91.23,134.73,83.42,134.78,82.7Zm-.23,27.51c.3-.27.57-.52.79-.75C135.12,109.69,134.85,109.94,134.55,110.21ZM148,105a13.53,13.53,0,0,0,5.08-.88A8.92,8.92,0,0,0,155,103a8.92,8.92,0,0,1-1.94,1.09A13.53,13.53,0,0,1,148,105Zm14.82,1.75a11.57,11.57,0,0,1-.94,1.05,11.57,11.57,0,0,0,.94-1.05,23.61,23.61,0,0,0,4.52-8.07A23.61,23.61,0,0,1,162.8,106.71Zm-1.7-42c.13.09.25.19.37.29C161.35,64.93,161.23,64.83,161.1,64.74Zm.76.6.36.31Zm1.77,1.71-.34-.36Zm5.48,15c0-.5-.05-1-.1-1.47C169.06,81,169.09,81.52,169.11,82ZM169,80.08c0-.32-.06-.63-.1-.93C168.9,79.45,168.93,79.76,169,80.08Zm-.19-1.48c0-.27-.08-.54-.13-.8C168.69,78.06,168.73,78.33,168.77,78.6Zm-.24-1.37-.15-.71Zm-.3-1.28c0-.22-.11-.44-.17-.66C168.12,75.51,168.18,75.73,168.23,76Zm-.34-1.22-.19-.61Zm-.39-1.15c-.07-.19-.14-.39-.21-.57C167.36,73.19,167.43,73.39,167.5,73.58Zm-.44-1.1c-.07-.18-.15-.36-.23-.53C166.91,72.12,167,72.3,167.06,72.48Zm-.47-1c-.09-.17-.17-.35-.26-.51C166.42,71.1,166.5,71.28,166.59,71.45Zm-.52-1L165.8,70Zm-.56-.93c-.1-.15-.19-.3-.29-.44C165.32,69.23,165.41,69.38,165.51,69.53Zm-.59-.87-.31-.42Zm-.63-.83-.32-.39Zm-1.35-1.5-.35-.34Zm-8.95-5-.43-.11Zm-.88-.2-.43-.09Zm-.88-.17-.44-.06Zm-.88-.12-.44-.05Zm-.87-.1-.45,0Zm-.88-.05h0Zm-1,0h0Zm-.61,0Zm-8.68,1.5.47-.17Zm.87-.32.47-.15Zm.87-.28.47-.13Zm.88-.24.48-.11Zm.88-.2.48-.09Zm.89-.17.48-.07Zm.89-.12.47-.06Zm.88-.1.47,0Zm.88-.05.47,0Zm-13,5.24c-.13.12-.25.25-.38.38C133.11,66.22,133.23,66.09,133.36,66Zm.73-.65-.39.35Zm-1.43,1.35c-.13.13-.25.26-.37.4C132.41,66.93,132.53,66.8,132.66,66.67Zm-.68.75-.34.42Zm-.64.8q-.17.21-.33.45Q131.18,68.43,131.34,68.22Zm-.61.84c-.11.16-.21.32-.31.48C130.52,69.38,130.62,69.22,130.73,69.06Zm-.58.9-.29.51Zm-.53,1c-.1.18-.18.36-.27.54C129.44,71.27,129.52,71.09,129.62,70.91Zm-.5,1c-.09.18-.16.37-.25.56C129,72.29,129,72.1,129.12,71.92ZM128.67,73c-.08.19-.15.39-.23.59C128.52,73.37,128.59,73.17,128.67,73Zm-.41,1.11c-.07.2-.14.42-.2.63C128.12,74.51,128.19,74.29,128.26,74.09Zm-.37,1.17c-.06.22-.12.44-.17.67C127.77,75.7,127.83,75.48,127.89,75.26Zm-.31,1.22c-.06.24-.1.48-.15.72C127.48,77,127.52,76.72,127.58,76.48Zm-.27,1.28-.12.78Zm-.21,1.35c0,.28-.07.58-.1.87C127,79.69,127.06,79.39,127.1,79.11Zm-.16,1.39c0,.44-.06.88-.09,1.33C126.88,81.38,126.9,80.94,126.94,80.5Zm3.62,22.59a21.17,21.17,0,0,0,2.63,3.66l.62.61-.62-.61A21.17,21.17,0,0,1,130.56,103.09Zm.6,9.5c.42-.24.8-.48,1.17-.72-.37.24-.75.48-1.17.72a.91.91,0,0,0-.21.18A.91.91,0,0,1,131.16,112.59Zm2.69-1.8-.93.69Zm.64,8.84a.68.68,0,0,1-.42-.34.68.68,0,0,0,.42.34.9.9,0,0,0,.23,0h0A.63.63,0,0,1,134.49,119.63Zm8.67-7.21h0q.56.12,1.11.21Q143.72,112.54,143.16,112.42Zm4.42.49c-.37,0-.73,0-1.1,0,.37,0,.73,0,1.1,0Zm.79,0h0c.47,0,.93,0,1.37-.06C149.3,112.89,148.84,112.91,148.37,112.91Zm5-.69-.88.2.88-.2c1.58,2.5,4.59,5.53,10.3,8.33C158,117.75,155,114.72,153.4,112.22ZM169.6,123c-1.49-.52-2.86-1.06-4.11-1.61,1.25.55,2.62,1.09,4.11,1.61,2.23.78,4.74,1.52,7.56,2.2.11,0,.21.09.32.13-.11,0-.21-.1-.32-.13C174.34,124.51,171.83,123.77,169.6,123Zm18.61,12.74-6.55-.4a.69.69,0,0,1-.65-.74,20.67,20.67,0,0,0-.07-3.66,7.42,7.42,0,0,0-1.92-4.71,7.42,7.42,0,0,1,1.92,4.71,20.67,20.67,0,0,1,.07,3.66.69.69,0,0,0,.65.74l6.55.4h0Zm.74-.66a.76.76,0,0,1-.06.26.76.76,0,0,0,.06-.26,25,25,0,0,0-.62-7.93A25,25,0,0,1,189,135.07Z"></path></svg> 