<?xml version="1.0" encoding="UTF-8"?> <svg xmlns="http://www.w3.org/2000/svg" xmlns:xlink="http://www.w3.org/1999/xlink" id="gradient_green" data-name="gradient green" viewBox="0 0 190 190"><defs><style>.cls-1{fill:url(#linear-gradient);}.cls-2{fill:url(#linear-gradient-2);}.cls-3{fill:url(#linear-gradient-3);}.cls-4{fill:url(#linear-gradient-4);}.cls-5{fill:url(#linear-gradient-5);}.cls-6{fill:url(#linear-gradient-6);}.cls-7{fill:url(#linear-gradient-7);}.cls-8{fill:url(#linear-gradient-8);}</style><linearGradient id="linear-gradient" x1="52.89" y1="12.95" x2="96.87" y2="177.05" gradientUnits="userSpaceOnUse"><stop offset="0" stop-color="#00c895"></stop><stop offset="1" stop-color="#00ad93"></stop></linearGradient><linearGradient id="linear-gradient-2" x1="144.51" y1="75.11" x2="159.28" y2="130.25" xlink:href="#linear-gradient"></linearGradient><linearGradient id="linear-gradient-3" x1="69.81" y1="31.49" x2="79.95" y2="69.34" xlink:href="#linear-gradient"></linearGradient><linearGradient id="linear-gradient-4" x1="69.81" y1="61.58" x2="79.95" y2="99.43" xlink:href="#linear-gradient"></linearGradient><linearGradient id="linear-gradient-5" x1="69.99" y1="91.68" x2="80.13" y2="129.51" xlink:href="#linear-gradient"></linearGradient><linearGradient id="linear-gradient-6" x1="41.25" y1="129.33" x2="47.39" y2="152.23" xlink:href="#linear-gradient"></linearGradient><linearGradient id="linear-gradient-7" x1="70.98" y1="129.33" x2="77.12" y2="152.23" xlink:href="#linear-gradient"></linearGradient><linearGradient id="linear-gradient-8" x1="100.83" y1="129.79" x2="106.73" y2="151.83" xlink:href="#linear-gradient"></linearGradient></defs><title>gradient_green_about_NAV</title><path class="cls-1" d="M135.16,164.24V150.39a3.32,3.32,0,0,0-6.64,0v10.52H21.43V29.27H128.52V95a3.32,3.32,0,0,0,6.64,0V25.76a3.31,3.31,0,0,0-3.32-3.32H17.92a3.31,3.31,0,0,0-3.32,3.32V164.24a3.31,3.31,0,0,0,3.32,3.32H131.84A3.31,3.31,0,0,0,135.16,164.24Z"></path><path class="cls-2" d="M188.89,73.21l-6.64-6.46a3.47,3.47,0,0,0-4.81,0l-53.35,54.1c-.19.37-.37.55-.56.92L116.15,136a3.43,3.43,0,0,0,.73,3.88,3.92,3.92,0,0,0,2.4.92,2,2,0,0,0,1.48-.37l14-7.75c.19-.19.56-.37.74-.56L189.08,78a3.51,3.51,0,0,0,.92-2.4A3,3,0,0,0,188.89,73.21ZM131.1,126.94l-3.88,2.22,2-3.88,50.59-51.51,1.84,1.84Z"></path><path class="cls-3" d="M34.35,59.73h81.06A2.52,2.52,0,0,0,118,57.15V43.67a2.52,2.52,0,0,0-2.58-2.58H34.35a2.52,2.52,0,0,0-2.58,2.58V57.15A2.52,2.52,0,0,0,34.35,59.73Zm2.59-13.47h75.88v8.49H36.94Z"></path><path class="cls-4" d="M31.77,87.25a2.52,2.52,0,0,0,2.58,2.58h81.06A2.52,2.52,0,0,0,118,87.25V73.77a2.53,2.53,0,0,0-2.58-2.59H34.35a2.53,2.53,0,0,0-2.58,2.59Zm5.17-10.9h75.88v8.5H36.94Z"></path><path class="cls-5" d="M118.18,117.34V103.86a2.53,2.53,0,0,0-2.59-2.58H34.54A2.53,2.53,0,0,0,32,103.86v13.48a2.53,2.53,0,0,0,2.59,2.59h81.05A2.65,2.65,0,0,0,118.18,117.34Zm-5.17-2.4H37.12v-8.49H113Z"></path><path class="cls-6" d="M36.75,130.63a2.53,2.53,0,0,0-2.58,2.59v15.14a2.52,2.52,0,0,0,2.58,2.58H51.89a2.77,2.77,0,0,0,2.59-2.58V133.22a2.53,2.53,0,0,0-2.59-2.59ZM49.31,146H39.15V135.8H49.31Z"></path><path class="cls-7" d="M66.48,130.63a2.53,2.53,0,0,0-2.59,2.59v15.14a2.52,2.52,0,0,0,2.59,2.58H81.62a2.63,2.63,0,0,0,2.58-2.58V133.22a2.52,2.52,0,0,0-2.58-2.59ZM79,146H68.88V135.8H79Z"></path><path class="cls-8" d="M109.5,135.8a2.59,2.59,0,0,0,0-5.17H98.05a2.52,2.52,0,0,0-2.58,2.59v15.14a2.51,2.51,0,0,0,2.58,2.58h11.63a2.48,2.48,0,0,0,2.59-2.4,2.53,2.53,0,0,0-2.59-2.58h-9.23V135.8Z"></path></svg> 