<svg id="gradient_green" data-name="gradient green" xmlns="http://www.w3.org/2000/svg" xmlns:xlink="http://www.w3.org/1999/xlink" viewBox="0 0 190 190"><defs><style>.cls-1{fill:url(#linear-gradient);}</style><linearGradient id="linear-gradient" x1="-4757.54" y1="95" x2="-4620.77" y2="95" gradientTransform="matrix(-1, 0, 0, 1, -4594.15, 0)" gradientUnits="userSpaceOnUse"><stop offset="0" stop-color="#00c895"/><stop offset="1" stop-color="#00ad93"/></linearGradient></defs><title>gradient_green_unlocked_padlock_LARGE</title><path class="cls-1" d="M26.61,96v80.63A13.4,13.4,0,0,0,40,190H150a13.39,13.39,0,0,0,13.38-13.38V96A13.4,13.4,0,0,0,150,82.61H66.09V55.66a28.91,28.91,0,1,1,57.81,0,13.38,13.38,0,1,0,26.76,0,55.66,55.66,0,0,0-111.32,0v27A13.36,13.36,0,0,0,26.61,96Zm27.32,68.34L38.83,135.8h18.8l15.11,28.53Zm27,0L65.82,135.8H84.63l15.1,28.53Zm27,0L92.82,135.8h18.81l15.11,28.53Zm27,0L119.83,135.8h18.8l15.11,28.53Zm11.89-28.53h9.31v17.58ZM45.73,164.33H33.86V141.9ZM58.85,55.66v27H46.59V55.66a48.42,48.42,0,1,1,96.83,0,6.14,6.14,0,1,1-12.27,0,36.15,36.15,0,1,0-72.3,0ZM156.14,96v32.58H33.86V96A6.14,6.14,0,0,1,40,89.86H150A6.14,6.14,0,0,1,156.14,96ZM33.86,176.62v-5H156.14v5a6.15,6.15,0,0,1-6.13,6.14H40A6.15,6.15,0,0,1,33.86,176.62Z"/></svg>