<?xml version="1.0" encoding="UTF-8"?> <svg xmlns="http://www.w3.org/2000/svg" xmlns:xlink="http://www.w3.org/1999/xlink" id="Layer_1" data-name="Layer 1" viewBox="0 0 250 250"><defs><style>.cls-1{fill:url(#linear-gradient);}.cls-2{fill:url(#linear-gradient-2);}.cls-3{fill:url(#linear-gradient-3);}.cls-4{fill:url(#linear-gradient-4);}</style><linearGradient id="linear-gradient" x1="14.37" y1="125" x2="235.63" y2="125" gradientUnits="userSpaceOnUse"><stop offset="0" stop-color="#00c895"></stop><stop offset="1" stop-color="#00c895"></stop></linearGradient><linearGradient id="linear-gradient-2" x1="65.04" y1="138.08" x2="168.71" y2="138.08" xlink:href="#linear-gradient"></linearGradient><linearGradient id="linear-gradient-3" x1="96.1" x2="153.9" xlink:href="#linear-gradient"></linearGradient><linearGradient id="linear-gradient-4" x1="111.99" y1="92.11" x2="186.65" y2="92.11" xlink:href="#linear-gradient"></linearGradient></defs><title>icon_open</title><path class="cls-1" d="M232.16,110.29a10.53,10.53,0,0,0-9.18-5.38l-13.58,0a2.8,2.8,0,0,1-2.74-1.92,84.15,84.15,0,0,0-8.22-19.91,2.78,2.78,0,0,1,.57-3.31l9.62-9.6a10.51,10.51,0,0,0,2.72-10.29,30.31,30.31,0,0,0-8-13,30.17,30.17,0,0,0-13-8,10.55,10.55,0,0,0-10.29,2.69l-9.63,9.61a2.82,2.82,0,0,1-3.31.56,83.77,83.77,0,0,0-19.89-8.28,2.82,2.82,0,0,1-1.92-2.75l0-13.58A10.49,10.49,0,0,0,140,17.88a30.09,30.09,0,0,0-14.85-3.51h-.06a30.21,30.21,0,0,0-14.8,3.47A10.53,10.53,0,0,0,104.91,27l0,13.58A2.8,2.8,0,0,1,103,43.34a84.22,84.22,0,0,0-19.91,8.22A2.78,2.78,0,0,1,79.75,51l-9.61-9.63a10.53,10.53,0,0,0-10.28-2.71,30.09,30.09,0,0,0-13,8,30.09,30.09,0,0,0-8.06,13,10.53,10.53,0,0,0,2.69,10.28l9.61,9.63a2.83,2.83,0,0,1,.56,3.32,83.7,83.7,0,0,0-8.28,19.88,2.82,2.82,0,0,1-2.75,1.92h0l-13.58,0h0A10.51,10.51,0,0,0,17.88,110a30.11,30.11,0,0,0-3.51,14.84,30.17,30.17,0,0,0,3.48,14.88A10.51,10.51,0,0,0,27,145.09l13.57,0A2.8,2.8,0,0,1,43.34,147a84.18,84.18,0,0,0,8.23,19.91,2.81,2.81,0,0,1-.58,3.31l-9.63,9.61a10.5,10.5,0,0,0-2.71,10.28,30.17,30.17,0,0,0,8,13,30.23,30.23,0,0,0,13,8.05,10.54,10.54,0,0,0,10.27-2.69l9.63-9.61a2.82,2.82,0,0,1,3.32-.56,84.19,84.19,0,0,0,19.88,8.28,2.82,2.82,0,0,1,1.92,2.75l0,13.58a10.51,10.51,0,0,0,5.35,9.19,30.09,30.09,0,0,0,14.85,3.51h.06a30.21,30.21,0,0,0,14.8-3.47,10.53,10.53,0,0,0,5.38-9.18l0-13.58a2.8,2.8,0,0,1,1.92-2.74,84.15,84.15,0,0,0,19.91-8.22,2.79,2.79,0,0,1,3.31.57l9.61,9.63a10.51,10.51,0,0,0,10.26,2.72,33.38,33.38,0,0,0,21-21,10.51,10.51,0,0,0-2.68-10.3l-9.61-9.63a2.83,2.83,0,0,1-.56-3.32,83.77,83.77,0,0,0,8.28-19.88,2.82,2.82,0,0,1,2.75-1.92h0l13.58,0h0a10.49,10.49,0,0,0,9.17-5.33,30.2,30.2,0,0,0,3.52-14.87,30.13,30.13,0,0,0-3.47-14.86Zm-7.62,25.48a1.77,1.77,0,0,1-1.6.9H209.35A11.46,11.46,0,0,0,198.23,145a75,75,0,0,1-7.43,17.83,11.49,11.49,0,0,0,1.94,13.78l9.61,9.63a1.82,1.82,0,0,1,.48,1.79,24.84,24.84,0,0,1-15.05,15,1.75,1.75,0,0,1-1.78-.49l-9.61-9.63a11.43,11.43,0,0,0-13.76-2,75.64,75.64,0,0,1-17.86,7.38,11.46,11.46,0,0,0-8.34,11.1l0,13.58a1.8,1.8,0,0,1-.92,1.61A21.57,21.57,0,0,1,124.91,227h0a21.59,21.59,0,0,1-10.62-2.41,1.81,1.81,0,0,1-.91-1.61V209.36A11.45,11.45,0,0,0,105,198.23a75.2,75.2,0,0,1-17.83-7.42,11.09,11.09,0,0,0-5.57-1.48,11.65,11.65,0,0,0-8.21,3.41l-9.63,9.61a1.81,1.81,0,0,1-1.77.49A21.71,21.71,0,0,1,52.81,197,21.58,21.58,0,0,1,47,187.79a1.82,1.82,0,0,1,.49-1.79l9.63-9.61a11.44,11.44,0,0,0,2-13.76,75.92,75.92,0,0,1-7.38-17.85,11.44,11.44,0,0,0-11.1-8.35l-13.58,0a1.81,1.81,0,0,1-1.61-.91A21.61,21.61,0,0,1,23,124.86a21.6,21.6,0,0,1,2.4-10.61,1.82,1.82,0,0,1,1.62-.92H40.65A11.44,11.44,0,0,0,51.77,105,75,75,0,0,1,59.2,87.2a11.49,11.49,0,0,0-1.94-13.78l-9.6-9.62A1.81,1.81,0,0,1,47.17,62,21.45,21.45,0,0,1,53,52.81,21.41,21.41,0,0,1,62.21,47a1.82,1.82,0,0,1,1.79.49l9.61,9.63a11.44,11.44,0,0,0,13.76,2,75.44,75.44,0,0,1,17.86-7.37,11.47,11.47,0,0,0,8.34-11.11l0-13.58a1.8,1.8,0,0,1,.92-1.61A21.57,21.57,0,0,1,125.09,23h0a21.59,21.59,0,0,1,10.62,2.41,1.81,1.81,0,0,1,.91,1.61V40.64A11.45,11.45,0,0,0,145,51.77a75.38,75.38,0,0,1,17.83,7.42,11.45,11.45,0,0,0,13.78-1.93l9.63-9.6a1.8,1.8,0,0,1,1.79-.49A21.59,21.59,0,0,1,197.19,53,21.58,21.58,0,0,1,203,62.21a1.81,1.81,0,0,1-.49,1.79l-9.63,9.61a11.43,11.43,0,0,0-2,13.76,75.92,75.92,0,0,1,7.38,17.85,11.43,11.43,0,0,0,11.1,8.35l13.58,0a1.81,1.81,0,0,1,1.61.93A21.55,21.55,0,0,1,227,125.14,21.51,21.51,0,0,1,224.54,135.77Z"></path><path class="cls-2" d="M161.21,159.11A49.26,49.26,0,0,1,125,174.75h-.07a49.65,49.65,0,0,1-46.6-66.87,4.32,4.32,0,0,0,3.46,1.78,4.39,4.39,0,0,0,1.95-.46,4.34,4.34,0,0,0,1.92-5.83L81.5,95.12a4.35,4.35,0,0,0-5.83-1.92l-8.25,4.16a4.33,4.33,0,0,0,2.5,8.16,58.41,58.41,0,0,0,55,77.91H125a58.65,58.65,0,0,0,42.54-18.37,4.34,4.34,0,0,0-6.32-5.95Z"></path><path class="cls-3" d="M125,153.9h0a28.9,28.9,0,0,0,0-57.8h0a28.9,28.9,0,0,0,0,57.8Zm-14.24-43.22a20.08,20.08,0,0,1,14.28-5.9h0a20.23,20.23,0,0,1,0,40.45h0a20.22,20.22,0,0,1-14.25-34.55Z"></path><path class="cls-4" d="M184.51,101.58a4.31,4.31,0,0,0-5.57,1,58.52,58.52,0,0,0-53.86-36H125a59.39,59.39,0,0,0-9.33.74A4.34,4.34,0,0,0,117,75.89a49.18,49.18,0,0,1,8-.64h.1a49.84,49.84,0,0,1,45.18,29.09,4.33,4.33,0,0,0-2.76,8l8,4.66a4.25,4.25,0,0,0,2.18.6,4.33,4.33,0,0,0,3.75-2.15l4.66-8A4.34,4.34,0,0,0,184.51,101.58Z"></path></svg> 