<?xml version="1.0" encoding="UTF-8"?> <svg xmlns="http://www.w3.org/2000/svg" xmlns:xlink="http://www.w3.org/1999/xlink" id="gradient_green" data-name="gradient green" viewBox="0 0 190 190"><defs><style>.cls-1{fill:url(#linear-gradient);}.cls-2{fill:url(#linear-gradient-2);}</style><linearGradient id="linear-gradient" x1="78.73" y1="25.56" x2="111.75" y2="148.78" gradientUnits="userSpaceOnUse"><stop offset="0" stop-color="#00c895"></stop><stop offset="1" stop-color="#00ad93"></stop></linearGradient><linearGradient id="linear-gradient-2" x1="78.54" y1="24.83" x2="111.94" y2="149.51" xlink:href="#linear-gradient"></linearGradient></defs><title>gradient_green_partners_NAV</title><path class="cls-1" d="M189.18,85.47a3.07,3.07,0,0,0-3.77-2.19L162,89.51a2.94,2.94,0,0,0-1.46.88l-13.86,14.92c-.25-.19-.47-.41-.73-.58L97.36,73.24a8.44,8.44,0,0,0-8.48-.39L66.29,84.65a2.27,2.27,0,0,1-2.4-.2,2.27,2.27,0,0,1-.43-3.17L74.09,67.46A11.94,11.94,0,0,1,81.4,63l12.47-2.32a53.17,53.17,0,0,1,20.69.24l13.26,2.79a8.48,8.48,0,0,0,4.88-.43,3.58,3.58,0,0,0,.66-.37l26.35-19.07a3.09,3.09,0,0,0-3.62-5l-26,18.8a2.07,2.07,0,0,1-1,0l-13.26-2.78a59.22,59.22,0,0,0-23.09-.27L80.27,56.91a18.06,18.06,0,0,0-9,4.57L59.62,59.63a2.39,2.39,0,0,1-.46-.12L33.79,38.92a3.09,3.09,0,1,0-3.89,4.8L55.57,64.54a3.64,3.64,0,0,0,.52.35,8.62,8.62,0,0,0,2.57.84l8,1.27L58.57,77.52a8.42,8.42,0,0,0,10.58,12.6l22.58-11.8a2.25,2.25,0,0,1,2.27.11l48.59,31.48a4.77,4.77,0,0,1-5,8.09l-26.28-15.72a3.09,3.09,0,0,0-3.17,5.3l21,12.57h0l2.53,1.51a3,3,0,0,1,1.4,1.92,3.05,3.05,0,0,1-.42,2.34,5.63,5.63,0,0,1-7.35,1.84l-20.54-11.19a3.09,3.09,0,0,0-3,5.42l14.82,8.07,3.66,2.24a2.81,2.81,0,0,1,.8,4.09,1.27,1.27,0,0,0-.13.19,5,5,0,0,1-6.54,1.78l-15.9-8.07a3.09,3.09,0,1,0-2.8,5.5l13.23,6.72a13.47,13.47,0,0,1-9.19,1.89l-12-1.83.85-1.21A9.17,9.17,0,0,0,87,129.15l0,0a9,9,0,0,0-3.87-1.82,9.95,9.95,0,0,0-9.21-12.84A10.13,10.13,0,0,0,73.7,112a10,10,0,0,0-4.37-6.44,10.08,10.08,0,0,0-13.67,2.65,9.8,9.8,0,0,0-3-3,10,10,0,0,0-12.17,1.28L29.18,91.67a3.08,3.08,0,0,0-1.52-1.08L4.73,83.32a3.09,3.09,0,0,0-1.86,5.89l22,7,11.75,15.51-3.27,4.67a9.94,9.94,0,0,0,2.38,13.76l.17.13a9.91,9.91,0,0,0,5.57,1.83A10,10,0,0,0,53.27,142a9.71,9.71,0,0,0,1.62-.46A9.9,9.9,0,0,0,64.21,148a10.14,10.14,0,0,0,4.4-1,9,9,0,0,0,4.54,4.11,9.18,9.18,0,0,0,3.5.7,9,9,0,0,0,7.16-3.55l15,2.3a20.85,20.85,0,0,0,3,.23,19.57,19.57,0,0,0,13.8-5.71c.36,0,.71.06,1.06.06a11.2,11.2,0,0,0,9.39-5.1,9.06,9.06,0,0,0,1.69-5.4h.13a11.83,11.83,0,0,0,9.88-5.28,9.06,9.06,0,0,0,1.46-4.52c.25,0,.51,0,.76,0a11,11,0,0,0,9.13-4.92,10.83,10.83,0,0,0,1.57-8.27,8.49,8.49,0,0,0-.38-1.21l14.13-15.22,22.54-6A3.09,3.09,0,0,0,189.18,85.47ZM44.45,124.61a3.71,3.71,0,0,1-2.16,1.24,3.64,3.64,0,0,1-2.82-.64l-.19-.13a3.75,3.75,0,0,1-.88-5.18l5.88-8.4a3.75,3.75,0,0,1,3.07-1.6,3.7,3.7,0,0,1,2,.56,3.68,3.68,0,0,1,1.32,5.09Zm11.49,7.65a8.4,8.4,0,0,0-.42.78l-.85,1.25a3.86,3.86,0,0,1-6.38-4.36l1.26-1.84c.08-.11.19-.2.27-.32,1.82-2.67,4-5.84,5.8-8.53a2.39,2.39,0,0,0,.12-.22l4.94-7.23A3.87,3.87,0,0,1,66,110.73a3.87,3.87,0,0,1,1.09,5.41l-1.7,2.48a.88.88,0,0,0-.12.15Zm13.2,5.17c-.15.22-.24.46-.37.69l-1.39,2h0a3.84,3.84,0,0,1-5,1.2,3.78,3.78,0,0,1-1.92-2.49,3.74,3.74,0,0,1,.17-2.34l9.81-14.38a3.74,3.74,0,0,1,2.5-1.49,3.6,3.6,0,0,1,.56,0,3.79,3.79,0,0,1,2.42.86,3.88,3.88,0,0,1,.75,5.18l-2.8,4c-.06.09-.15.16-.21.25Zm14.42.41L79,144.32a2.94,2.94,0,0,1-5.16-2.74L79,134.21a2.83,2.83,0,0,1,1.79-1,2.87,2.87,0,0,1,2.25.62l0,0A3,3,0,0,1,83.56,137.84Z"></path><path class="cls-2" d="M31.84,38.23a3.12,3.12,0,0,1,1.95.69L59.16,59.51a2.39,2.39,0,0,0,.46.12l11.61,1.85a18.06,18.06,0,0,1,9-4.57l12.47-2.32a59,59,0,0,1,23.09.27l13.26,2.78a1.75,1.75,0,0,0,.46,0,2.1,2.1,0,0,0,.56-.07l26-18.8a3.09,3.09,0,0,1,3.62,5L133.36,62.89a3.58,3.58,0,0,1-.66.37,8.43,8.43,0,0,1-4.88.43L114.56,60.9a53.16,53.16,0,0,0-20.69-.24L81.4,63a11.94,11.94,0,0,0-7.31,4.48L63.46,81.28a2.27,2.27,0,0,0,.43,3.17,2.28,2.28,0,0,0,1.36.46,2.23,2.23,0,0,0,1-.26l22.59-11.8a8.42,8.42,0,0,1,8.48.39L146,104.73c.26.17.48.39.73.58l13.86-14.92a2.94,2.94,0,0,1,1.46-.88l23.41-6.23a3.09,3.09,0,0,1,1.58,6l-22.54,6-14.13,15.22a8.49,8.49,0,0,1,.38,1.21A10.94,10.94,0,0,1,140,124.86c-.25,0-.51,0-.76,0a9.06,9.06,0,0,1-1.46,4.52,11.83,11.83,0,0,1-9.88,5.28h-.13a9.06,9.06,0,0,1-1.69,5.4,11.2,11.2,0,0,1-9.39,5.1,9.55,9.55,0,0,1-1.06-.06,19.57,19.57,0,0,1-13.8,5.71,20.85,20.85,0,0,1-3-.23l-15-2.3a9,9,0,0,1-7.16,3.55,9.18,9.18,0,0,1-3.5-.7A9,9,0,0,1,68.61,147a10,10,0,0,1-9.16-.18,10,10,0,0,1-4.56-5.26,9.71,9.71,0,0,1-1.62.46,10.08,10.08,0,0,1-1.81.17,10,10,0,0,1-10-10.07,9.91,9.91,0,0,1-5.57-1.83l-.17-.13a9.94,9.94,0,0,1-2.38-13.76l3.27-4.67L24.86,96.18l-22-7a3.09,3.09,0,0,1,.93-6,3,3,0,0,1,.93.14l22.93,7.27a3.08,3.08,0,0,1,1.52,1.08l11.27,14.85a9.92,9.92,0,0,1,6.9-2.78,10.07,10.07,0,0,1,5.27,1.5,9.8,9.8,0,0,1,3,3A10.07,10.07,0,0,1,63.91,104a10,10,0,0,1,9.79,8,10.13,10.13,0,0,1,.15,2.45,9.95,9.95,0,0,1,9.21,12.84,9,9,0,0,1,3.87,1.82l0,0a9.17,9.17,0,0,1,1.65,12.22l-.85,1.21,12,1.83a13.09,13.09,0,0,0,2.06.16,13.45,13.45,0,0,0,7.13-2L95.69,135.8a3.09,3.09,0,1,1,2.8-5.5l15.9,8.07a5.11,5.11,0,0,0,2.29.55,5,5,0,0,0,4.25-2.33,1.27,1.27,0,0,1,.13-.19,2.81,2.81,0,0,0-.8-4.09l-3.66-2.24L101.78,122a3.09,3.09,0,0,1,1.48-5.8,3,3,0,0,1,1.48.38l20.54,11.19a5.63,5.63,0,0,0,7.35-1.84,3.05,3.05,0,0,0,.42-2.34,3,3,0,0,0-1.4-1.92l-2.53-1.51h0l-21-12.57a3.09,3.09,0,0,1,1.59-5.74,3,3,0,0,1,1.58.44L137.55,118a4.77,4.77,0,0,0,5-8.09L94,78.43a2.24,2.24,0,0,0-1.22-.37,2.3,2.3,0,0,0-1,.26L69.15,90.12a8.42,8.42,0,0,1-10.58-12.6L66.65,67l-8-1.27a8.62,8.62,0,0,1-2.57-.84,3.64,3.64,0,0,1-.52-.35L29.9,43.72a3.09,3.09,0,0,1,1.94-5.49m9.79,87.68a3.72,3.72,0,0,0,2.82-1.3l6.18-9.06a3.77,3.77,0,0,0-6.35-4l-5.88,8.4a3.75,3.75,0,0,0,.88,5.18l.19.13a3.69,3.69,0,0,0,2.16.7M51.48,136a4,4,0,0,0,.69-.06,3.87,3.87,0,0,0,2.5-1.62l.85-1.25a8.4,8.4,0,0,1,.42-.78l9.29-13.49a.88.88,0,0,1,.12-.15l1.7-2.48a3.84,3.84,0,0,0-3.17-6,3.88,3.88,0,0,0-3.2,1.67L55.74,119a2.39,2.39,0,0,1-.12.22c-1.82,2.69-4,5.86-5.8,8.53-.08.12-.19.21-.27.32l-1.26,1.84a3.86,3.86,0,0,0,3.19,6m12.73,5.84a3.84,3.84,0,0,0,3.17-1.67h0l1.39-2c.13-.23.22-.47.37-.69l4.52-6.49c.06-.09.15-.16.21-.25l2.8-4a3.88,3.88,0,0,0-.75-5.18,3.79,3.79,0,0,0-2.42-.86,3.6,3.6,0,0,0-.56,0,3.74,3.74,0,0,0-2.5,1.49l-9.81,14.38a3.74,3.74,0,0,0-.17,2.34,3.88,3.88,0,0,0,3.75,3m12.42,3.78A2.92,2.92,0,0,0,79,144.32l4.52-6.48a3,3,0,0,0-.55-4l0,0a2.89,2.89,0,0,0-1.83-.65,3,3,0,0,0-.42,0,2.83,2.83,0,0,0-1.79,1l-5.07,7.37a2.94,2.94,0,0,0,1.62,3.78,3,3,0,0,0,1.13.23M31.84,37.48a3.84,3.84,0,0,0-2.42,6.82L55.1,65.13a4.41,4.41,0,0,0,.64.42,9,9,0,0,0,2.8.92l6.75,1.07L58,77.06a9.18,9.18,0,0,0-1.82,6.82A9.08,9.08,0,0,0,59.71,90a9.19,9.19,0,0,0,9.79.82L92.08,79a1.5,1.5,0,0,1,1.51.07l48.59,31.49a4,4,0,0,1-2.19,7.39,4,4,0,0,1-2.06-.57l-26.27-15.72a3.83,3.83,0,0,0-2-.55,3.88,3.88,0,0,0-3.3,1.87,3.83,3.83,0,0,0-.42,2.9,3.78,3.78,0,0,0,1.75,2.36l21,12.55,0,0,2.54,1.52a2.27,2.27,0,0,1,.73,3.2,4.87,4.87,0,0,1-6.36,1.59L105.1,115.92a3.83,3.83,0,1,0-3.67,6.73l14.81,8.08,3.63,2.22a2,2,0,0,1,1,1.37,2.09,2.09,0,0,1-.37,1.64,1.88,1.88,0,0,0-.16.23,4.29,4.29,0,0,1-5.57,1.51l-15.9-8.07a3.83,3.83,0,0,0-5.16,1.68,3.84,3.84,0,0,0,1.68,5.16l12,6.08a12.69,12.69,0,0,1-7.48,1.12L89.08,142l.16-.23a9.93,9.93,0,0,0-1.78-13.23h0l0,0A9.65,9.65,0,0,0,84,126.74a10.65,10.65,0,0,0-9.36-13,9.53,9.53,0,0,0-.18-1.91,10.72,10.72,0,0,0-10.52-8.64A10.86,10.86,0,0,0,55.68,107,10.23,10.23,0,0,0,53,104.6,10.83,10.83,0,0,0,47.35,103a10.64,10.64,0,0,0-6.8,2.43L29.78,91.22a3.78,3.78,0,0,0-1.9-1.34L5,82.61A3.84,3.84,0,0,0,.39,88a3.8,3.8,0,0,0,2.25,1.89L24.4,96.83,35.69,111.7l-3,4.23a10.7,10.7,0,0,0,2.5,14.77,2,2,0,0,0,.25.18,10.67,10.67,0,0,0,5.26,1.91,10.73,10.73,0,0,0,12.67,9.93,10.27,10.27,0,0,0,1.06-.26,10.8,10.8,0,0,0,4.62,5,10.77,10.77,0,0,0,9.21.48A9.81,9.81,0,0,0,84.12,149l14.56,2.23a20.78,20.78,0,0,0,3.15.24,20.29,20.29,0,0,0,14.08-5.68q.38,0,.78,0a11.92,11.92,0,0,0,10-5.44,9.78,9.78,0,0,0,1.79-5.07,12.5,12.5,0,0,0,9.91-5.6,9.68,9.68,0,0,0,1.51-4.13H140a11.71,11.71,0,0,0,11.44-14.09,7,7,0,0,0-.26-.88l13.68-14.73L187.19,90a3.83,3.83,0,0,0-1-7.54,3.62,3.62,0,0,0-1,.13l-23.41,6.22a3.85,3.85,0,0,0-1.82,1.1l-13.38,14.4-.26-.18L97.77,72.62a9.11,9.11,0,0,0-5-1.48,9.21,9.21,0,0,0-4.25,1L66,84a1.54,1.54,0,0,1-.7.17,1.49,1.49,0,0,1-.91-.31,1.46,1.46,0,0,1-.58-1,1.49,1.49,0,0,1,.3-1.11L74.68,67.92a11.2,11.2,0,0,1,6.86-4.2L94,61.4a52.25,52.25,0,0,1,20.41.24l13.25,2.78a9.34,9.34,0,0,0,1.89.2A9.19,9.19,0,0,0,133,64a3.86,3.86,0,0,0,.82-.45l26.35-19.07a3.84,3.84,0,0,0-2.25-7,3.78,3.78,0,0,0-2.25.73L129.8,56.92a1.1,1.1,0,0,1-.25,0,1.63,1.63,0,0,1-.31,0L116,54.13a60.09,60.09,0,0,0-12.37-1.3,61.07,61.07,0,0,0-11,1L80.14,56.17A18.82,18.82,0,0,0,71,60.68L59.74,58.89l-.21,0L34.26,38.34a3.81,3.81,0,0,0-2.42-.86Zm9.79,87.68a2.93,2.93,0,0,1-1.73-.56l-.18-.13a3,3,0,0,1-.7-4.14l5.88-8.4a3,3,0,0,1,4-.84,3,3,0,0,1,1.42,2,2.91,2.91,0,0,1-.34,2.09l-6.14,9a2.93,2.93,0,0,1-1.7,1,2.32,2.32,0,0,1-.53,0Zm9.85,10.06a3.1,3.1,0,0,1-2.57-4.86l1.26-1.85.06-.06a3,3,0,0,0,.21-.26c1.82-2.66,4-5.84,5.8-8.53a.72.72,0,0,0,.12-.21l4.94-7.24a3.11,3.11,0,1,1,5.13,3.5l-1.7,2.49a.94.94,0,0,0-.12.14l-9.29,13.5a4.75,4.75,0,0,0-.32.57l-.12.23-.83,1.23a3.09,3.09,0,0,1-2,1.3,3.64,3.64,0,0,1-.56.05Zm9.82,1.64,9.75-14.31a3,3,0,0,1,2-1.17,3.4,3.4,0,0,1,.45,0,3.07,3.07,0,0,1,1.94.69,3.11,3.11,0,0,1,.61,4.17l-2.79,4.06h0l0,0a1.24,1.24,0,0,0-.18.22L68.53,137a3.35,3.35,0,0,0-.29.5l-.1.21L67,139.39h0l-.23.32a3.09,3.09,0,0,1-2.55,1.35,3.11,3.11,0,0,1-2.91-4.2Zm18.24-2.18a2.13,2.13,0,0,1,1.3-.7l.32,0a2.19,2.19,0,0,1,1.78,3.45l-4.52,6.49a2.18,2.18,0,0,1-1.79.94,2.21,2.21,0,0,1-2.11-1.58,2.16,2.16,0,0,1,0-1.33l5-7.25Z"></path></svg> 