<?xml version="1.0" encoding="UTF-8"?> <svg xmlns="http://www.w3.org/2000/svg" xmlns:xlink="http://www.w3.org/1999/xlink" id="gradient_green" data-name="gradient green" viewBox="0 0 190 190"><defs><style>.cls-1{fill:url(#linear-gradient);}.cls-2{fill:url(#linear-gradient-2);}.cls-3{fill:url(#linear-gradient-3);}.cls-4{fill:url(#linear-gradient-4);}.cls-5{fill:url(#linear-gradient-5);}.cls-6{fill:url(#linear-gradient-6);}.cls-7{fill:url(#linear-gradient-7);}</style><linearGradient id="linear-gradient" x1="10.82" y1="95" x2="179.18" y2="95" gradientUnits="userSpaceOnUse"><stop offset="0" stop-color="#00c895"></stop><stop offset="1" stop-color="#00ad93"></stop></linearGradient><linearGradient id="linear-gradient-2" x1="63.59" y1="64.38" x2="101.47" y2="64.38" xlink:href="#linear-gradient"></linearGradient><linearGradient id="linear-gradient-3" x1="109.19" y1="48.94" x2="158.94" y2="48.94" xlink:href="#linear-gradient"></linearGradient><linearGradient id="linear-gradient-4" x1="109.19" y1="79.82" x2="158.94" y2="79.82" xlink:href="#linear-gradient"></linearGradient><linearGradient id="linear-gradient-5" x1="65.11" y1="120.12" x2="160.47" y2="120.12" xlink:href="#linear-gradient"></linearGradient><linearGradient id="linear-gradient-6" x1="65.11" y1="99.19" x2="160.47" y2="99.19" xlink:href="#linear-gradient"></linearGradient><linearGradient id="linear-gradient-7" x1="65.11" y1="141.06" x2="160.47" y2="141.06" xlink:href="#linear-gradient"></linearGradient></defs><title>gradient_green_document2</title><path class="cls-1" d="M175.68,22.94H48.38a3.49,3.49,0,0,0-3.5,3.5V54H14.32A3.51,3.51,0,0,0,11,58.61L45,164.63c0,.06.05.11.07.17a2.29,2.29,0,0,0,.1.23,2,2,0,0,0,.19.36l.11.18a4,4,0,0,0,.37.45l0,0a2.93,2.93,0,0,0,.48.39l.16.1a2.82,2.82,0,0,0,.38.21l.21.08a2,2,0,0,0,.41.13l.19.05a3.47,3.47,0,0,0,.64.06H175.68a3.5,3.5,0,0,0,3.5-3.5V26.44A3.5,3.5,0,0,0,175.68,22.94ZM44.88,61v80.18L19.12,61Zm127.3,99H51.88V29.94h120.3Z"></path><path class="cls-2" d="M67.09,83.32H98a3.5,3.5,0,0,0,3.5-3.5V48.94a3.5,3.5,0,0,0-3.5-3.5H67.09a3.5,3.5,0,0,0-3.5,3.5V79.82A3.5,3.5,0,0,0,67.09,83.32Zm3.5-30.88H94.47V76.32H70.59Z"></path><path class="cls-3" d="M112.69,52.44h42.75a3.5,3.5,0,0,0,0-7H112.69a3.5,3.5,0,0,0,0,7Z"></path><path class="cls-4" d="M112.69,83.32h42.75a3.5,3.5,0,0,0,0-7H112.69a3.5,3.5,0,0,0,0,7Z"></path><path class="cls-5" d="M157,116.62H68.61a3.5,3.5,0,0,0,0,7H157a3.5,3.5,0,1,0,0-7Z"></path><path class="cls-6" d="M68.61,95.69a3.5,3.5,0,0,0,0,7H157a3.5,3.5,0,0,0,0-7Z"></path><path class="cls-7" d="M157,137.56H68.61a3.5,3.5,0,0,0,0,7H157a3.5,3.5,0,0,0,0-7Z"></path></svg> 