<?xml version="1.0" encoding="UTF-8"?> <svg xmlns="http://www.w3.org/2000/svg" xmlns:xlink="http://www.w3.org/1999/xlink" id="gradient_green" data-name="gradient green" viewBox="0 0 190 190"><defs><style>.cls-1{fill:url(#linear-gradient);}.cls-2{fill:url(#linear-gradient-2);}.cls-3{fill:url(#linear-gradient-3);}.cls-4{fill:url(#linear-gradient-4);}.cls-5{fill:url(#linear-gradient-5);}.cls-6{fill:url(#linear-gradient-6);}.cls-7{fill:url(#linear-gradient-7);}.cls-8{fill:url(#linear-gradient-8);}.cls-9{fill:url(#linear-gradient-9);}.cls-10{fill:url(#linear-gradient-10);}.cls-11{fill:url(#linear-gradient-11);}.cls-12{fill:url(#linear-gradient-12);}.cls-13{fill:url(#linear-gradient-13);}.cls-14{fill:url(#linear-gradient-14);}</style><linearGradient id="linear-gradient" x1="135.25" y1="50.41" x2="137.08" y2="57.25" gradientUnits="userSpaceOnUse"><stop offset="0" stop-color="#00c895"></stop><stop offset="1" stop-color="#00ad93"></stop></linearGradient><linearGradient id="linear-gradient-2" x1="46.58" y1="50.41" x2="48.42" y2="57.25" xlink:href="#linear-gradient"></linearGradient><linearGradient id="linear-gradient-3" x1="87.75" y1="154.91" x2="89.58" y2="161.75" xlink:href="#linear-gradient"></linearGradient><linearGradient id="linear-gradient-4" x1="163.75" y1="78.91" x2="165.58" y2="85.75" xlink:href="#linear-gradient"></linearGradient><linearGradient id="linear-gradient-5" x1="24.42" y1="78.91" x2="26.25" y2="85.75" xlink:href="#linear-gradient"></linearGradient><linearGradient id="linear-gradient-6" x1="120.49" y1="-4.84" x2="170.4" y2="181.43" xlink:href="#linear-gradient"></linearGradient><linearGradient id="linear-gradient-7" x1="19.59" y1="8.54" x2="69.51" y2="194.85" xlink:href="#linear-gradient"></linearGradient><linearGradient id="linear-gradient-8" x1="109.92" y1="161.25" x2="111.75" y2="168.09" xlink:href="#linear-gradient"></linearGradient><linearGradient id="linear-gradient-9" x1="83.64" y1="19.59" x2="100.02" y2="80.73" xlink:href="#linear-gradient"></linearGradient><linearGradient id="linear-gradient-10" x1="88.19" y1="36.58" x2="95.47" y2="63.74" xlink:href="#linear-gradient"></linearGradient><linearGradient id="linear-gradient-11" x1="124.81" y1="80.26" x2="141.19" y2="141.4" xlink:href="#linear-gradient"></linearGradient><linearGradient id="linear-gradient-12" x1="129.36" y1="97.25" x2="136.64" y2="124.42" xlink:href="#linear-gradient"></linearGradient><linearGradient id="linear-gradient-13" x1="48.81" y1="92.93" x2="65.19" y2="154.07" xlink:href="#linear-gradient"></linearGradient><linearGradient id="linear-gradient-14" x1="53.36" y1="109.92" x2="60.64" y2="137.09" xlink:href="#linear-gradient"></linearGradient></defs><title>gradient_green_protocals</title><rect class="cls-1" x="133" y="50.67" width="6.33" height="6.33" rx="1.5"></rect><rect class="cls-2" x="44.33" y="50.67" width="6.33" height="6.33" rx="1.5"></rect><rect class="cls-3" x="85.5" y="155.17" width="6.33" height="6.33" rx="1.5"></rect><rect class="cls-4" x="161.5" y="79.17" width="6.33" height="6.33" rx="1.5"></rect><rect class="cls-5" x="22.17" y="79.17" width="6.33" height="6.33" rx="1.5"></rect><path class="cls-6" d="M101.33,1.25V5.12a1.23,1.23,0,0,0,1.22,1.22c44.84.69,81.12,39.45,81.12,87,0,35.75-20.89,68.22-51.55,81.38l3.4-9a1.24,1.24,0,0,0-.71-1.59l-3.62-1.37a1.24,1.24,0,0,0-1.59.72L123.71,179a3.16,3.16,0,0,0,1.73,4l14.69,6.2a1.24,1.24,0,0,0,1.62-.66l1.5-3.56a1.22,1.22,0,0,0-.66-1.61l-7.47-3.16C167.78,166,190,131.39,190,93.33,190,42.31,150.9.72,102.58,0A1.24,1.24,0,0,0,101.33,1.25Z"></path><path class="cls-7" d="M6.33,96.67c0-35.75,20.89-68.22,51.55-81.38l-3.43,9a1.17,1.17,0,0,0,.68,1.5l3.74,1.42a1.16,1.16,0,0,0,1.5-.67L66.29,11a3.16,3.16,0,0,0-1.73-4L49.8.7a1.16,1.16,0,0,0-1.52.62L46.72,5a1.17,1.17,0,0,0,.62,1.53l7.54,3.18C22.22,24,0,58.61,0,96.67,0,147.72,39.14,189.32,87.48,190a1.18,1.18,0,0,0,1.19-1.17v-4a1.16,1.16,0,0,0-1.15-1.15C42.64,183,6.33,144.23,6.33,96.67Z"></path><rect class="cls-8" x="107.67" y="161.5" width="6.33" height="6.33" rx="1.5"></rect><path class="cls-9" d="M123.5,46.92a5.06,5.06,0,0,0-5.31-5.34H117c-.42-1-.86-2.1-1.31-3.17l.93-.94a5.13,5.13,0,0,0,0-7.3c-1.6-1.61-3.2-3.22-4.82-4.81a5.06,5.06,0,0,0-7.29,0c-.32.3-.63.61-1,.93-1.1-.47-2.14-.9-3.16-1.31,0-.45,0-.9,0-1.35a5.08,5.08,0,0,0-5.14-5.11q-3.43,0-6.86,0a5.1,5.1,0,0,0-5.15,5.18c0,.42,0,.85,0,1.28-1.07.43-2.11.86-3.16,1.31l-1-.93a5.06,5.06,0,0,0-7.29,0c-1.61,1.6-3.22,3.2-4.81,4.82a5.11,5.11,0,0,0,0,7.29c.31.32.62.64.94.95-.49,1.15-.92,2.18-1.31,3.16-.47,0-.9,0-1.35,0a5.08,5.08,0,0,0-5.11,5.14q0,3.44,0,6.86a5.08,5.08,0,0,0,5.11,5.15h1.36c.4,1,.83,2,1.31,3.16l-.93,1a5.06,5.06,0,0,0,0,7.29c1.59,1.62,3.2,3.22,4.81,4.82a5.06,5.06,0,0,0,7.29,0l1-.93,3.16,1.31c0,.45,0,.9,0,1.34a5.08,5.08,0,0,0,5.14,5.12h6.86a5.1,5.1,0,0,0,5.15-5.17c0-.43,0-.86,0-1.29,1-.42,2.08-.85,3.16-1.31l.94.92a5.07,5.07,0,0,0,7.3,0c1.61-1.59,3.22-3.19,4.81-4.81a5.12,5.12,0,0,0,0-7.3l-.93-1c.46-1.09.9-2.13,1.31-3.15l1.35,0a5,5,0,0,0,5.11-5.13c0-.79,0-1.58,0-2.37Zm-5.32,6.77c-.69,0-1.38,0-2.09,0H116a3.42,3.42,0,0,0-3.3,2.27c-.62,1.56-1.29,3.17-2,4.92a3.33,3.33,0,0,0,.74,3.88q.82.8,1.62,1.62c.06.06.09.11.1.11a.51.51,0,0,1-.09.12q-2.37,2.4-4.77,4.77a.7.7,0,0,0-.09.09.79.79,0,0,1-.14-.11c-.55-.54-1.1-1.08-1.64-1.64a3.35,3.35,0,0,0-3.87-.71c-1.73.75-3.34,1.42-4.92,2a3.37,3.37,0,0,0-2.25,3.31q0,1.13,0,2.25a.74.74,0,0,0,0,.16h-.13c-2.27,0-4.53,0-6.8,0h-.11s0-.06,0-.13c0-.7,0-1.45,0-2.21A3.42,3.42,0,0,0,86,71c-1.58-.62-3.18-1.29-4.91-2a3.79,3.79,0,0,0-1.47-.32,3.36,3.36,0,0,0-2.41,1c-.53.55-1.07,1.09-1.63,1.63l-.11.1a.58.58,0,0,1-.12-.1c-1.6-1.58-3.19-3.16-4.76-4.76l-.09-.1a.4.4,0,0,1,.1-.13c.54-.56,1.08-1.1,1.62-1.63A3.32,3.32,0,0,0,73,60.86c-.77-1.8-1.44-3.41-2-4.93a3.44,3.44,0,0,0-3.32-2.25q-1.14,0-2.28,0h-.12s0-.06,0-.12q0-3.41,0-6.81a.59.59,0,0,0,0-.11h.17c.72,0,1.44,0,2.15,0A3.44,3.44,0,0,0,71,44.36c.58-1.46,1.23-3,2-4.92a3.33,3.33,0,0,0-.74-3.87c-.55-.53-1.09-1.07-1.63-1.63l-.09-.11a.43.43,0,0,1,.09-.12Q73,31.32,75.4,29l.09-.09a.49.49,0,0,1,.14.11c.55.53,1.1,1.07,1.63,1.62a3.36,3.36,0,0,0,3.88.72c1.59-.68,3.24-1.37,4.91-2A3.38,3.38,0,0,0,88.31,26c0-.75,0-1.49,0-2.24a.74.74,0,0,0,0-.16h.13c2.27,0,4.53,0,6.8,0h.11s0,.07,0,.13c0,.74,0,1.48,0,2.21a3.4,3.4,0,0,0,2.27,3.39c1.58.63,3.23,1.31,4.91,2a3.37,3.37,0,0,0,3.87-.73C107,30,107.49,29.5,108,29c.07-.07.12-.1.11-.12a.67.67,0,0,1,.12.1q2.4,2.37,4.77,4.77l.09.1a.54.54,0,0,1-.1.13c-.54.55-1.08,1.1-1.63,1.63a3.34,3.34,0,0,0-.72,3.88c.77,1.8,1.43,3.4,2,4.92A3.35,3.35,0,0,0,116,46.63c.52,0,1,0,1.57,0h.56l.26,0a1.52,1.52,0,0,1,0,.28v6.62a.83.83,0,0,0,0,.12l-.12,0Z"></path><path class="cls-10" d="M91.83,36.1h0a14.06,14.06,0,1,0,14.07,14A14.08,14.08,0,0,0,91.82,36.1Zm9,14a9,9,0,0,1-9,9,9,9,0,1,1,9-9Z"></path><path class="cls-11" d="M164.66,107.59a5.06,5.06,0,0,0-5.31-5.34H158.2c-.42-1-.86-2.09-1.31-3.17l.93-.94a5.12,5.12,0,0,0,0-7.29c-1.59-1.62-3.2-3.22-4.81-4.82a5.06,5.06,0,0,0-7.29,0l-.95.93c-1.1-.46-2.14-.9-3.16-1.31,0-.45,0-.9,0-1.34a5.09,5.09,0,0,0-5.14-5.12q-3.44,0-6.86,0a5.11,5.11,0,0,0-5.16,5.18v1.28l-3.17,1.31-.94-.93A5.06,5.06,0,0,0,113,86c-1.62,1.59-3.22,3.19-4.82,4.81a5.13,5.13,0,0,0,0,7.3l.93,1c-.48,1.14-.91,2.17-1.31,3.15-.46,0-.89,0-1.34,0a5.07,5.07,0,0,0-5.12,5.14q0,3.42,0,6.86a5.09,5.09,0,0,0,5.1,5.15h1.36c.4,1,.84,2,1.31,3.16-.31.31-.62.62-.92.94a5.06,5.06,0,0,0,0,7.3q2.39,2.42,4.81,4.81a5.06,5.06,0,0,0,7.29,0c.32-.31.64-.62,1-.94l3.16,1.31c0,.45,0,.9,0,1.35a5.08,5.08,0,0,0,5.15,5.11h6.86a5.1,5.1,0,0,0,5.15-5.17V136c1-.42,2.09-.85,3.17-1.31l.94.93a5.06,5.06,0,0,0,7.29,0c1.62-1.6,3.22-3.2,4.82-4.81a5.14,5.14,0,0,0,0-7.31l-.93-.94c.46-1.09.89-2.13,1.31-3.16h1.35a5,5,0,0,0,5.11-5.13c0-.79,0-1.59,0-2.38Zm-5.31,6.77c-.69,0-1.38,0-2.1,0h-.07a3.41,3.41,0,0,0-3.3,2.26c-.62,1.56-1.29,3.17-2,4.92a3.33,3.33,0,0,0,.74,3.88q.82.8,1.62,1.62l.1.12a.58.58,0,0,1-.1.12c-1.58,1.6-3.17,3.18-4.77,4.76l-.09.09a.79.79,0,0,1-.14-.11c-.55-.53-1.09-1.08-1.63-1.63a3.36,3.36,0,0,0-3.87-.71c-1.74.74-3.35,1.41-4.92,2a3.36,3.36,0,0,0-2.25,3.31c0,.75,0,1.49,0,2.24,0,.09,0,.15,0,.16h-.13q-3.41,0-6.81,0h-.1a.9.9,0,0,1,0-.13c0-.7,0-1.45,0-2.21a3.42,3.42,0,0,0-2.27-3.39c-1.58-.63-3.18-1.29-4.92-2a3.75,3.75,0,0,0-1.47-.32,3.34,3.34,0,0,0-2.4,1.05c-.53.55-1.07,1.09-1.64,1.63-.06.06-.1.09-.1.11l-.12-.1q-2.4-2.37-4.77-4.77l-.09-.1a.73.73,0,0,1,.11-.13c.53-.55,1.07-1.1,1.62-1.62a3.34,3.34,0,0,0,.73-3.89c-.77-1.79-1.44-3.4-2-4.93a3.44,3.44,0,0,0-3.32-2.24c-.76,0-1.52,0-2.29,0h-.11s0-.06,0-.12q0-3.41,0-6.81a.77.77,0,0,1,0-.1l.17,0c.72,0,1.44,0,2.15,0a3.45,3.45,0,0,0,3.4-2.27c.59-1.47,1.23-3,2-4.92a3.32,3.32,0,0,0-.73-3.87c-.55-.54-1.09-1.08-1.63-1.63l-.1-.11a.58.58,0,0,1,.1-.12c1.58-1.6,3.16-3.19,4.76-4.77,0-.05.09-.07.1-.09l.14.11c.55.54,1.09,1.08,1.62,1.63a3.4,3.4,0,0,0,3.89.72c1.59-.69,3.24-1.38,4.91-2a3.39,3.39,0,0,0,2.26-3.31c0-.75,0-1.5,0-2.25,0-.09,0-.15,0-.16h.13q3.41,0,6.81,0h.1a.29.29,0,0,1,0,.12q0,1.11,0,2.22A3.37,3.37,0,0,0,138.79,90c1.59.63,3.24,1.32,4.92,2a3.36,3.36,0,0,0,3.87-.73c.53-.55,1.08-1.09,1.63-1.62a1,1,0,0,0,.11-.11.58.58,0,0,1,.12.1c1.6,1.58,3.19,3.16,4.77,4.76l.09.1a.34.34,0,0,1-.11.13c-.53.56-1.08,1.1-1.63,1.64a3.35,3.35,0,0,0-.72,3.87c.77,1.8,1.44,3.41,2,4.92a3.38,3.38,0,0,0,3.33,2.26c.52,0,1,0,1.57,0h.55a1.34,1.34,0,0,1,.26,0,1.6,1.6,0,0,1,0,.28v4.79c0,.62,0,1.23,0,1.84a.45.45,0,0,0,0,.12h-.26Z"></path><path class="cls-12" d="M133,96.77h0a14.06,14.06,0,1,0,14.08,14A14.08,14.08,0,0,0,133,96.77Zm9,14a9,9,0,0,1-9,9,9,9,0,1,1,9-9Z"></path><path class="cls-13" d="M88.66,120.26a5.06,5.06,0,0,0-5.31-5.34H82.2c-.42-1-.86-2.1-1.31-3.17l.93-.94a5.13,5.13,0,0,0,0-7.3c-1.59-1.61-3.2-3.22-4.81-4.81a5.06,5.06,0,0,0-7.29,0c-.32.3-.64.62-1,.93-1.1-.47-2.14-.9-3.16-1.31,0-.45,0-.9,0-1.35a5.08,5.08,0,0,0-5.14-5.11q-3.44,0-6.86,0A5.11,5.11,0,0,0,48.42,97V98.3c-1.07.43-2.12.86-3.17,1.31l-.94-.93a5.06,5.06,0,0,0-7.29,0c-1.62,1.6-3.22,3.2-4.82,4.82a5.12,5.12,0,0,0,0,7.29l.93,1c-.48,1.15-.91,2.18-1.31,3.16-.46,0-.89,0-1.34,0a5.08,5.08,0,0,0-5.12,5.14q0,3.43,0,6.86a5.08,5.08,0,0,0,5.1,5.15H31.8c.4,1,.84,2,1.31,3.17-.31.31-.62.62-.92.94a5,5,0,0,0,0,7.29c1.59,1.62,3.19,3.22,4.81,4.82a5.06,5.06,0,0,0,7.29,0l1-.93,3.16,1.31c0,.45,0,.9,0,1.35a5.08,5.08,0,0,0,5.15,5.11h6.86A5.1,5.1,0,0,0,65.58,150V148.7c1-.42,2.09-.85,3.17-1.31l.94.93a5.06,5.06,0,0,0,7.29,0c1.62-1.59,3.22-3.19,4.82-4.81a5.13,5.13,0,0,0,0-7.3l-.93-.94,1.31-3.16h1.35a5,5,0,0,0,5.11-5.14q0-1.18,0-2.37ZM83.35,127c-.69,0-1.38,0-2.1,0h-.07a3.41,3.41,0,0,0-3.3,2.27c-.62,1.56-1.29,3.17-2,4.92a3.33,3.33,0,0,0,.74,3.88q.83.79,1.62,1.62c.06.06.09.11.1.11a.31.31,0,0,1-.1.12q-2.37,2.4-4.77,4.77s-.08.07-.09.09a.79.79,0,0,1-.14-.11c-.55-.54-1.09-1.08-1.63-1.64a3.36,3.36,0,0,0-3.87-.71c-1.74.75-3.35,1.42-4.92,2a3.38,3.38,0,0,0-2.25,3.32c0,.74,0,1.49,0,2.24,0,.09,0,.15,0,.16h-7a.41.41,0,0,1,0-.14c0-.7,0-1.45,0-2.21a3.4,3.4,0,0,0-2.27-3.38c-1.58-.63-3.18-1.29-4.92-2a3.75,3.75,0,0,0-1.47-.32,3.34,3.34,0,0,0-2.4,1c-.53.55-1.07,1.09-1.64,1.63-.06.06-.1.09-.1.1l-.12-.1c-1.6-1.58-3.19-3.16-4.77-4.76l-.09-.1a.49.49,0,0,1,.11-.13c.53-.56,1.07-1.1,1.62-1.63a3.32,3.32,0,0,0,.73-3.88c-.77-1.8-1.44-3.41-2-4.93A3.45,3.45,0,0,0,32.8,127c-.76,0-1.52,0-2.29,0H30.4s0-.06,0-.12q0-3.41,0-6.81a.77.77,0,0,1,0-.1.49.49,0,0,1,.17,0c.72,0,1.44,0,2.15,0a3.43,3.43,0,0,0,3.4-2.26c.59-1.47,1.23-3,2-4.92a3.31,3.31,0,0,0-.73-3.87c-.55-.54-1.09-1.08-1.63-1.64l-.1-.11a.58.58,0,0,1,.1-.12c1.58-1.59,3.16-3.18,4.76-4.76l.1-.09a.68.68,0,0,1,.14.11c.55.53,1.09,1.08,1.62,1.62a3.37,3.37,0,0,0,3.89.72c1.59-.68,3.24-1.37,4.91-2a3.41,3.41,0,0,0,2.26-3.32c0-.75,0-1.49,0-2.24,0-.09,0-.15,0-.16h.13q3.4,0,6.81,0c.05,0,.09,0,.1,0a.39.39,0,0,1,0,.13c0,.74,0,1.48,0,2.21a3.38,3.38,0,0,0,2.26,3.39c1.59.63,3.24,1.32,4.92,2a3.36,3.36,0,0,0,3.87-.73c.53-.55,1.08-1.09,1.63-1.62.06-.07.11-.1.11-.11a.43.43,0,0,1,.12.09q2.4,2.37,4.77,4.77l.09.1a.44.44,0,0,1-.11.13c-.53.55-1.08,1.1-1.63,1.63a3.37,3.37,0,0,0-.72,3.88c.77,1.8,1.44,3.4,2,4.92A3.36,3.36,0,0,0,81.21,120c.52,0,1,0,1.57,0h.55l.26,0a1.52,1.52,0,0,1,0,.28v4.79c0,.61,0,1.22,0,1.83,0,.07,0,.11,0,.12a.35.35,0,0,1-.13,0Z"></path><path class="cls-14" d="M57,109.44h0a14.06,14.06,0,1,0,14.08,14A14.08,14.08,0,0,0,57,109.44Zm9,14a9,9,0,0,1-9,9,9,9,0,1,1,9-9Z"></path></svg> 