<?xml version="1.0" encoding="UTF-8"?> <svg xmlns="http://www.w3.org/2000/svg" id="icon-event-portal" data-name="EP Logo Green" viewBox="0 0 226 226"><defs><style>.cls-1{fill:#00c895;}.cls-2{fill:none;stroke:#00c895;stroke-miterlimit:10;stroke-width:9.93px;}</style></defs><g id="icon"><path class="cls-1" d="M69.34,87.67v19.21a5.45,5.45,0,0,1-5.44,5.45H44.68V93.11a5.45,5.45,0,0,1,5.45-5.44H69.34m12-12H50.13A17.44,17.44,0,0,0,32.68,93.11v31.22H63.9a17.44,17.44,0,0,0,17.44-17.45V75.67Z"></path><polygon class="cls-1" points="141.35 94.03 125.56 143.45 134.03 151.93 149.83 99.86 141.35 94.03"></polygon><rect class="cls-1" x="84.97" y="106.54" width="10.57" height="53.55" transform="translate(-67.83 102.87) rotate(-45)"></rect><polygon class="cls-1" points="81.48 99.37 135.98 86.01 127.24 77.27 72.73 90.63 81.48 99.37"></polygon><circle class="cls-2" cx="113" cy="113" r="106.5"></circle><path class="cls-1" d="M163.91,64.71V83.93a5.45,5.45,0,0,1-5.45,5.44H139.25V70.16a5.45,5.45,0,0,1,5.44-5.45h19.22m12-12H144.69a17.44,17.44,0,0,0-17.44,17.45v31.21h31.21a17.44,17.44,0,0,0,17.45-17.44V52.71Z"></path><path class="cls-1" d="M136.37,154.69V173.9a5.46,5.46,0,0,1-5.45,5.45H111.71V160.13a5.45,5.45,0,0,1,5.44-5.44h19.22m12-12H117.15a17.44,17.44,0,0,0-17.44,17.44v31.22h31.21a17.45,17.45,0,0,0,17.45-17.45V142.69Z"></path></g></svg> 