<?xml version="1.0" encoding="UTF-8"?> <svg xmlns="http://www.w3.org/2000/svg" xmlns:xlink="http://www.w3.org/1999/xlink" id="Layer_1" data-name="Layer 1" viewBox="0 0 250 250"><defs><style>.cls-1{fill:url(#linear-gradient);}</style><linearGradient id="linear-gradient" x1="21.71" y1="125" x2="228.29" y2="125" gradientUnits="userSpaceOnUse"><stop offset="0" stop-color="#00c895"></stop><stop offset="1" stop-color="#00c895"></stop></linearGradient></defs><title>icon_simple</title><path class="cls-1" d="M225.56,37c-2.18-1.6-5.15-1.66-8.14-.14L25.47,134.12c-3.75,1.91-3.86,4.7-3.73,5.81s.87,3.82,5,4.81l60.53,14.62,32.9,51.42a7,7,0,0,0,5.79,3.44H126a7,7,0,0,0,5.8-3.3l23.67-35.08,42.7,10.32a6.68,6.68,0,0,0,1.46.17,6.19,6.19,0,0,0,3.38-1,6.12,6.12,0,0,0,2.65-4.12L228.14,44.71c.54-3.28-.4-6.09-2.58-7.69ZM34.91,138.39l163.4-82.78L88.69,151.39ZM122.65,162l0,0a.8.8,0,0,1-.09.14c-.07.1-.12.2-.19.31s-.1.16-.14.24l0,.12c-.05.11-.08.22-.13.33s-.08.21-.11.31a.11.11,0,0,1,0,.05.17.17,0,0,0,0,.07,1.77,1.77,0,0,0,0,.32c0,.11,0,.23,0,.34s0,.1,0,.16,0,0,0,.06l.12,34L95,156.57l100.74-88ZM130,199.18l-.09-29.52,17.2,4.16ZM198,177.82l-65.17-15.75L218.7,52.36Z"></path></svg> 