<?xml version="1.0" encoding="UTF-8"?> <svg xmlns="http://www.w3.org/2000/svg" xmlns:xlink="http://www.w3.org/1999/xlink" id="icon_soft" data-name="Layer 1" viewBox="0 0 200 200"><defs><style>.cls-1{fill:url(#linear-gradient);}.cls-2{fill:url(#linear-gradient-2);}.cls-3{fill:url(#linear-gradient-3);}.cls-4{fill:url(#linear-gradient-4);}.cls-5{fill:url(#linear-gradient-5);}.cls-6{fill:url(#linear-gradient-6);}.cls-7{fill:url(#linear-gradient-7);}.cls-8{fill:url(#linear-gradient-8);}.cls-9{fill:url(#linear-gradient-9);}.cls-10{fill:url(#linear-gradient-10);}.cls-11{fill:url(#linear-gradient-11);}.cls-12{fill:url(#linear-gradient-12);}</style><linearGradient id="linear-gradient" x1="79.24" y1="21.36" x2="118" y2="166.01" gradientUnits="userSpaceOnUse"><stop offset="0" stop-color="#00c895"></stop><stop offset="1" stop-color="#00ad93"></stop></linearGradient><linearGradient id="linear-gradient-2" x1="91.84" y1="123.06" x2="108.16" y2="183.93" xlink:href="#linear-gradient"></linearGradient><linearGradient id="linear-gradient-3" x1="88" y1="52.69" x2="109.64" y2="133.46" xlink:href="#linear-gradient"></linearGradient><linearGradient id="linear-gradient-4" x1="82.06" y1="72.23" x2="85.23" y2="84.05" xlink:href="#linear-gradient"></linearGradient><linearGradient id="linear-gradient-5" x1="97.24" y1="72.23" x2="100.4" y2="84.05" xlink:href="#linear-gradient"></linearGradient><linearGradient id="linear-gradient-6" x1="112.41" y1="72.23" x2="115.58" y2="84.05" xlink:href="#linear-gradient"></linearGradient><linearGradient id="linear-gradient-7" x1="82.06" y1="87.16" x2="85.23" y2="98.98" xlink:href="#linear-gradient"></linearGradient><linearGradient id="linear-gradient-8" x1="97.24" y1="87.16" x2="100.4" y2="98.98" xlink:href="#linear-gradient"></linearGradient><linearGradient id="linear-gradient-9" x1="112.41" y1="87.16" x2="115.58" y2="98.98" xlink:href="#linear-gradient"></linearGradient><linearGradient id="linear-gradient-10" x1="82.06" y1="102.23" x2="85.23" y2="114.05" xlink:href="#linear-gradient"></linearGradient><linearGradient id="linear-gradient-11" x1="97.24" y1="102.23" x2="100.4" y2="114.05" xlink:href="#linear-gradient"></linearGradient><linearGradient id="linear-gradient-12" x1="112.41" y1="102.23" x2="115.58" y2="114.05" xlink:href="#linear-gradient"></linearGradient></defs><title>Software</title><path class="cls-1" d="M175.32,150.65H22.62V40a4.46,4.46,0,0,1,4.45-4.45h143.8A4.46,4.46,0,0,1,175.32,40ZM30.77,142.5h136.4V43.65H30.77Z"></path><path class="cls-2" d="M179.94,164.5H20.06a5.69,5.69,0,0,1-5.68-5.68V148.18a5.69,5.69,0,0,1,5.68-5.68H179.94a5.69,5.69,0,0,1,5.68,5.68v10.64A5.69,5.69,0,0,1,179.94,164.5ZM22.53,156.35H177.47v-5.7H22.53Z"></path><path class="cls-3" d="M98.82,134.88a41.81,41.81,0,1,1,41.81-41.81A41.85,41.85,0,0,1,98.82,134.88Zm0-75.47a33.66,33.66,0,1,0,33.66,33.66A33.7,33.7,0,0,0,98.82,59.41Z"></path><rect class="cls-4" x="77.99" y="72.49" width="11.3" height="11.3" rx="3.59"></rect><rect class="cls-5" x="93.17" y="72.49" width="11.3" height="11.3" rx="3.59"></rect><rect class="cls-6" x="108.35" y="72.49" width="11.3" height="11.3" rx="3.59"></rect><rect class="cls-7" x="77.99" y="87.42" width="11.3" height="11.3" rx="3.59"></rect><rect class="cls-8" x="93.17" y="87.42" width="11.3" height="11.3" rx="3.59"></rect><rect class="cls-9" x="108.35" y="87.42" width="11.3" height="11.3" rx="3.59"></rect><rect class="cls-10" x="77.99" y="102.49" width="11.3" height="11.3" rx="3.59"></rect><rect class="cls-11" x="93.17" y="102.49" width="11.3" height="11.3" rx="3.59"></rect><rect class="cls-12" x="108.35" y="102.49" width="11.3" height="11.3" rx="3.59"></rect></svg> 