<svg xmlns="http://www.w3.org/2000/svg" id="Layer_huge" data-name="Layer 1" viewBox="0 0 307.31 403.91"><defs><style>.cls-1{fill:#fff;}</style></defs><title>whiterbc_huge</title><path class="cls-1" d="M213.22,180.05a167,167,0,0,0-3.63,23.53l33.12-1.72h0a118.58,118.58,0,0,0-2.5-20.57Z"></path><path class="cls-1" d="M185.81,175.9l18.85-.86a129.6,129.6,0,0,1,2.42-17A49.86,49.86,0,0,0,185.81,175.9Z"></path><path class="cls-1" d="M152.45,125.25c-7.87,0-21.14,3.5-27.58,4.49,2.88,1.94,13.09,8.46,20.09,12.9L167.77,129A35,35,0,0,0,152.45,125.25Z"></path><path class="cls-1" d="M132.36,94.79a16.09,16.09,0,0,0,8.29,1.45,12.35,12.35,0,0,0,9-5.11C141.51,89.35,137,90.35,132.36,94.79Z"></path><path class="cls-1" d="M251.81,181.82a98.08,98.08,0,0,1,.49,19.53L279,199.92a51.71,51.71,0,0,0-5-17.07Z"></path><path class="cls-1" d="M279.15,211l-27.79-1.56a96.55,96.55,0,0,1-5.55,20.09l29.86-3.74A44.39,44.39,0,0,0,279.15,211Z"></path><path class="cls-1" d="M230.3,153.5h-3.4a52.57,52.57,0,0,0-5.6.43,169,169,0,0,0-6.68,20.49l23.54-1.29h0A94.72,94.72,0,0,0,230.3,153.5Z"></path><path class="cls-1" d="M266.6,171.48a52.79,52.79,0,0,0-20.93-14.62,112.49,112.49,0,0,1,4.5,15.49Z"></path><path class="cls-1" d="M246.86,144.1l3.18-4.45-5-6.51.84-1.46,13.79,7.44-3,9a61.14,61.14,0,0,1,7,4.23l8.91-14.63-23.05-12.06H198.63l-41.34,24.88a109.84,109.84,0,0,1,20,17.1,61.94,61.94,0,0,1,49.82-26.41,63.62,63.62,0,0,1,19.77,2.69Z"></path><path class="cls-1" d="M169,309.52c0-9.23-5.87-11.12-14.51-11.12H144.37v23.7h7.75C161.09,322.1,169,319.38,169,309.52Z"></path><path class="cls-1" d="M154.79,329.18H144.37v31.24H155.3c12.12,0,19.31-4.66,19.31-16.16C174.61,333.44,169.11,329.18,154.79,329.18Z"></path><path class="cls-1" d="M68.86,298.4H56.93v28.41h9.4c10.77,0,17.61-5.57,17.61-15C83.94,301.31,78.77,298.4,68.86,298.4Z"></path><path class="cls-1" d="M307.13,354.47V0H0V354.47c0,13.46,5.39,21.08,16.16,25.2,41.55,16,90.72,24.24,137.5,24.24s96-8.24,137.5-24.24c10.77-4.12,16.15-11.85,16.15-25.2Zm-290-192.63a35.48,35.48,0,0,1,5.39-18l4,2.69a41.48,41.48,0,0,0-2.07,13.76c1.24,17.45,15.24,29.2,57.79,55.75h-.14c45.14,28.17,57.74,45.37,61.56,67.67h-2.37c-9.77-21.52-29.65-33.58-52.21-46.37v17.34H86.74A105.73,105.73,0,0,0,52.08,212.2c-15.48-11.61-21.76-17.4-27.74-26.61A42.26,42.26,0,0,1,17.15,161.84ZM88.38,367.66l-25-33.93H56.93v33.93H39.26V308c0-6.06-.89-10.56-3.88-13.46a13,13,0,0,0-4.47-2.7v-.64H73.49c20.63,0,28.49,6.94,28.49,20.11,0,11.23-8.46,17.4-19.74,20.41l28.17,36Zm72.22,0H126.78V306.53c-.13-5.38-1-9.4-3.82-12.12a12.47,12.47,0,0,0-4.47-2.69v-.64h40.82c24.24,0,27.69,9,27.69,17.23a17.16,17.16,0,0,1-15.17,16.4c10.56.67,20.85,6.3,20.85,19.52C192.68,360.55,179.21,367.66,160.6,367.66ZM275.19,363s-7.17,5.82-25.34,5.82c-19.58,0-41.77-8.08-41.77-38.94,0-27.44,18.64-40,43.52-40,16.42,0,23.35,5,23.35,5L271.09,308l-.72-.16a14.4,14.4,0,0,0-6.2-6.23,26.3,26.3,0,0,0-14.05-3.25c-13.71,0-23.94,7.67-23.59,31.13.32,25.39,17,30.59,28.43,30.59,13.79,0,20.23-6,20.23-6Zm8.64-98.34-5.6,19h-2.88c0-15.86-14.57-20.2-29.81-20.2H197.9a79.41,79.41,0,0,1,1,25.64h-2.37c-4.41-35.66-24.56-53.35-52.75-72.25V233h-2.37c-7.49-16.75-23.94-32.47-39.53-43.62l-12.69-9V198H86.87c-6.62-17.37-18.6-30.35-35.7-45.78-18.48-16.62-25.94-26.58-30.27-38A53.67,53.67,0,0,1,17.45,94c-.19-13.63,6.71-25.91,15.3-30.51V70a33.24,33.24,0,0,0-6.49,20,44.93,44.93,0,0,0,4.92,20.44c10.4,19.82,45.43,44.14,67.7,59.06,69.21,46.4,83,54.5,94.5,79.14A60.31,60.31,0,0,1,197,259.43l53-8.07c1.26-.19,3.95-.54,5.38-.62a52.25,52.25,0,0,0,15.4-15.27l-26.52-2.05a81,81,0,0,1-3.91,7.65h-2.18c.73-2.69,1.38-5.39,1.92-8.08l-6.79-.51v-1.43l7.35-.91a129.58,129.58,0,0,0,2.21-21.25L209.4,207a81.5,81.5,0,0,0,0,9.64h-2.15q-1-5-1.7-9.85l-7.33-.43v-2.24l7-.38a149.69,149.69,0,0,1-.7-24.23L185,178.62a43,43,0,0,1,2.69,5.39,64.28,64.28,0,0,1,1.8,31.93H187.1A71.59,71.59,0,0,0,182,194.08c-5.39-12.74-17.53-24-37.86-37v16.16h-2.37c-6.76-21.38-23.59-33.29-48.47-46.13C72.63,116.49,66.33,103.73,67.38,84l7,4.12c1.78,18.5,16,29.17,30.83,29.06a132.5,132.5,0,0,0,24.89-2.69c11.41-2.32,22-4.29,30.83-1.16V102.46h-7.4a23.65,23.65,0,0,1-14.92,4.77c-8.08,0-23.57-4.55-23.57-21.76,0-15,12.66-17.34,23-17.34,5.52,0,14.7-.22,17.8-.38a7.68,7.68,0,0,0,5.14-1.61,6.26,6.26,0,0,0,1.81-3.85,41.44,41.44,0,0,0,.32-6.95V44.41H115.36V63.26L97.29,56.55V51.92h8.65V44.41H73.62V28.71H62.74A12.89,12.89,0,0,0,49.63,40.8c-.46,7.65,3,14.08,10.77,14.08h1.54V64H60.51a23.62,23.62,0,0,1-24.24-23q0-.63,0-1.26c0-14.33,12.2-25.23,26.93-25.23H86.5v15.7h90.56V53.48c0,3.91-.22,9.16-.59,12.47a14.34,14.34,0,0,1-5.71,10.26c-2.7,2.1-6.9,3-13.66,3-2.2,0-8.64,0-16.34-.56-10.32-.65-13.25,3.33-13.66,7a9.58,9.58,0,0,0,0,2.27A20.87,20.87,0,0,1,146.52,84c13.68,4.31,17.59,4.69,24.69-.91l.73,1.61a18,18,0,0,1-4.15,4.39h6.63V125L195,112.64h57.65L281,127.48a9.24,9.24,0,0,1,5.39,7.41,13.77,13.77,0,0,1-1.59,8.51c-.86,1.37-7.49,12.25-11,18A61.93,61.93,0,0,1,270.41,249q-1.77,1.65-3.68,3.15A31.49,31.49,0,0,1,283.83,264.69Z"></path></svg> 